<?xml version="1.0" encoding="UTF-8"?>
<svg version="1.1" xmlns="http://www.w3.org/2000/svg" width="599" height="600">
<path d="M0 0 C1.10752625 0.00304138 2.21505249 0.00608276 3.35614014 0.00921631 C30.03942999 0.11714096 55.08133698 3.42363018 80.875 10.4375 C81.74237793 10.66663086 82.60975586 10.89576172 83.50341797 11.13183594 C97.82860965 14.95077851 111.32161619 20.47304561 124.875 26.4375 C125.65472168 26.77507324 126.43444336 27.11264648 127.23779297 27.46044922 C145.23804281 35.29317693 162.28979536 45.51387958 177.875 57.4375 C178.44089844 57.86740234 179.00679688 58.29730469 179.58984375 58.74023438 C183.73973286 61.90579567 187.82622235 65.14375239 191.875 68.4375 C192.44186523 68.89850098 193.00873047 69.35950195 193.59277344 69.83447266 C200.98858607 75.89920777 207.95865368 82.32771053 214.75 89.0625 C215.45882324 89.76205811 216.16764648 90.46161621 216.89794922 91.18237305 C217.54779785 91.83633057 218.19764648 92.49028809 218.8671875 93.1640625 C219.44839355 93.74752441 220.02959961 94.33098633 220.62841797 94.93212891 C221.875 96.4375 221.875 96.4375 221.875 98.4375 C222.535 98.4375 223.195 98.4375 223.875 98.4375 C226.58879129 101.31614778 228.96773326 104.48110675 231.41357422 107.58886719 C232.98216325 109.57305632 234.57097829 111.54008361 236.16015625 113.5078125 C277.65485507 165.34129698 300.53878038 230.38174043 300.32104492 296.67602539 C300.31254779 300.60291296 300.34140134 304.52833332 300.37304688 308.45507812 C300.43453788 330.30071813 298.19121028 351.66546035 292.5625 372.8125 C292.26255127 373.96838623 291.96260254 375.12427246 291.65356445 376.31518555 C275.39340538 437.75896762 239.1281863 497.9525349 187.51611328 536.20654297 C185.89237609 537.42446664 184.30095589 538.67498328 182.71484375 539.94140625 C143.17913831 571.38091615 94.54117976 590.62726669 44.875 598.4375 C43.81490723 598.61555176 42.75481445 598.79360352 41.66259766 598.97705078 C29.43000408 600.79223076 17.20091609 600.80972571 4.85302734 600.80810547 C1.17366953 600.81244263 -2.50444974 600.84876911 -6.18359375 600.88671875 C-49.15733391 601.09036534 -92.6235674 590.60986581 -131.125 571.4375 C-131.98383789 571.01355957 -132.84267578 570.58961914 -133.72753906 570.15283203 C-171.37688442 551.42395921 -207.32781645 523.88720628 -233.125 490.4375 C-234.28515625 488.98537109 -234.28515625 488.98537109 -235.46875 487.50390625 C-268.07929788 446.17313275 -288.853472 397.35222182 -297.125 345.4375 C-297.31191406 344.3330957 -297.49882812 343.22869141 -297.69140625 342.09082031 C-299.52786872 329.77012478 -299.49720645 317.42470146 -299.49560547 304.98828125 C-299.49994334 301.23650468 -299.53626937 297.48594192 -299.57421875 293.734375 C-299.95064326 212.85948585 -263.33045474 140.17735686 -208 83.125 C-205.125 80.4375 -205.125 80.4375 -203.125 80.4375 C-203.125 79.7775 -203.125 79.1175 -203.125 78.4375 C-201.59662731 77.04150604 -199.99849901 75.72162351 -198.375 74.4375 C-197.49328125 73.73625 -196.6115625 73.035 -195.703125 72.3125 C-195.17235352 71.89218506 -194.64158203 71.47187012 -194.09472656 71.03881836 C-192.55276643 69.78525905 -191.03310156 68.50426485 -189.52246094 67.21313477 C-182.29461958 61.05540024 -174.81516491 55.58407571 -166.875 50.375 C-166.28351166 49.98464569 -165.69202332 49.59429138 -165.08261108 49.19210815 C-143.2293689 34.78317911 -120.30548593 23.23030349 -95.3359375 15.15771484 C-93.31864554 14.5005802 -91.31528907 13.81309547 -89.3125 13.11328125 C-80.87666829 10.28048607 -72.31242992 8.22992633 -63.625 6.3125 C-62.55314453 6.07072021 -61.48128906 5.82894043 -60.37695312 5.57983398 C-40.38313346 1.32108036 -20.40588959 -0.11986008 0 0 Z " fill="#A61660" transform="translate(299.125,-0.4375)"/>
<path d="M0 0 C1.10752625 0.00304138 2.21505249 0.00608276 3.35614014 0.00921631 C30.03942999 0.11714096 55.08133698 3.42363018 80.875 10.4375 C81.74237793 10.66663086 82.60975586 10.89576172 83.50341797 11.13183594 C97.82860965 14.95077851 111.32161619 20.47304561 124.875 26.4375 C125.65472168 26.77507324 126.43444336 27.11264648 127.23779297 27.46044922 C145.23804281 35.29317693 162.28979536 45.51387958 177.875 57.4375 C178.44089844 57.86740234 179.00679688 58.29730469 179.58984375 58.74023438 C183.73973286 61.90579567 187.82622235 65.14375239 191.875 68.4375 C192.44186523 68.89850098 193.00873047 69.35950195 193.59277344 69.83447266 C200.98858607 75.89920777 207.95865368 82.32771053 214.75 89.0625 C215.45882324 89.76205811 216.16764648 90.46161621 216.89794922 91.18237305 C217.54779785 91.83633057 218.19764648 92.49028809 218.8671875 93.1640625 C219.44839355 93.74752441 220.02959961 94.33098633 220.62841797 94.93212891 C221.875 96.4375 221.875 96.4375 221.875 98.4375 C222.535 98.4375 223.195 98.4375 223.875 98.4375 C226.58879129 101.31614778 228.96773326 104.48110675 231.41357422 107.58886719 C232.98216325 109.57305632 234.57097829 111.54008361 236.16015625 113.5078125 C277.65485507 165.34129698 300.53878038 230.38174043 300.32104492 296.67602539 C300.31254779 300.60291296 300.34140134 304.52833332 300.37304688 308.45507812 C300.43453788 330.30071813 298.19121028 351.66546035 292.5625 372.8125 C292.26255127 373.96838623 291.96260254 375.12427246 291.65356445 376.31518555 C275.39340538 437.75896762 239.1281863 497.9525349 187.51611328 536.20654297 C185.89237609 537.42446664 184.30095589 538.67498328 182.71484375 539.94140625 C143.17913831 571.38091615 94.54117976 590.62726669 44.875 598.4375 C43.81490723 598.61555176 42.75481445 598.79360352 41.66259766 598.97705078 C29.43000408 600.79223076 17.20091609 600.80972571 4.85302734 600.80810547 C1.17366953 600.81244263 -2.50444974 600.84876911 -6.18359375 600.88671875 C-49.15733391 601.09036534 -92.6235674 590.60986581 -131.125 571.4375 C-131.98383789 571.01355957 -132.84267578 570.58961914 -133.72753906 570.15283203 C-171.37688442 551.42395921 -207.32781645 523.88720628 -233.125 490.4375 C-234.28515625 488.98537109 -234.28515625 488.98537109 -235.46875 487.50390625 C-268.07929788 446.17313275 -288.853472 397.35222182 -297.125 345.4375 C-297.31191406 344.3330957 -297.49882812 343.22869141 -297.69140625 342.09082031 C-299.52786872 329.77012478 -299.49720645 317.42470146 -299.49560547 304.98828125 C-299.49994334 301.23650468 -299.53626937 297.48594192 -299.57421875 293.734375 C-299.95064326 212.85948585 -263.33045474 140.17735686 -208 83.125 C-205.125 80.4375 -205.125 80.4375 -203.125 80.4375 C-203.125 79.7775 -203.125 79.1175 -203.125 78.4375 C-201.59662731 77.04150604 -199.99849901 75.72162351 -198.375 74.4375 C-197.49328125 73.73625 -196.6115625 73.035 -195.703125 72.3125 C-195.17235352 71.89218506 -194.64158203 71.47187012 -194.09472656 71.03881836 C-192.55276643 69.78525905 -191.03310156 68.50426485 -189.52246094 67.21313477 C-182.29461958 61.05540024 -174.81516491 55.58407571 -166.875 50.375 C-166.28351166 49.98464569 -165.69202332 49.59429138 -165.08261108 49.19210815 C-143.2293689 34.78317911 -120.30548593 23.23030349 -95.3359375 15.15771484 C-93.31864554 14.5005802 -91.31528907 13.81309547 -89.3125 13.11328125 C-80.87666829 10.28048607 -72.31242992 8.22992633 -63.625 6.3125 C-62.55314453 6.07072021 -61.48128906 5.82894043 -60.37695312 5.57983398 C-40.38313346 1.32108036 -20.40588959 -0.11986008 0 0 Z M-144.125 123.4375 C-144.72715332 123.93813965 -145.32930664 124.4387793 -145.94970703 124.95458984 C-155.7563555 133.13491994 -164.91936434 141.62229734 -173.125 151.4375 C-173.55296875 151.94635742 -173.9809375 152.45521484 -174.421875 152.97949219 C-182.49256739 162.6299561 -189.63588052 172.66026252 -196.125 183.4375 C-196.58261719 184.19627441 -197.04023438 184.95504883 -197.51171875 185.73681641 C-209.75270305 206.32275744 -217.80220083 228.13691181 -223.125 251.4375 C-223.30337402 252.18080566 -223.48174805 252.92411133 -223.66552734 253.68994141 C-233.88668247 297.28273122 -229.17812249 348.79682373 -210.125 389.4375 C-209.70492676 390.35354004 -209.28485352 391.26958008 -208.85205078 392.21337891 C-193.26209408 426.18042412 -171.04714348 457.53708619 -141.125 480.4375 C-140.56586914 480.86772461 -140.00673828 481.29794922 -139.43066406 481.74121094 C-130.381385 488.66703071 -121.06038994 494.85900268 -111.125 500.4375 C-110.44147461 500.82180176 -109.75794922 501.20610352 -109.05371094 501.60205078 C-99.98795437 506.6517814 -90.85536929 511.11121 -81.11157227 514.70385742 C-79.64145231 515.24677379 -78.17652766 515.80380457 -76.71459961 516.3684082 C-38.29988969 530.91174485 2.75836813 532.54970488 42.875 525.4375 C43.8551709 525.26621582 44.8353418 525.09493164 45.84521484 524.91845703 C98.07604568 515.40782298 148.81752666 483.86320342 180.53955078 441.22607422 C181.9038586 439.39884953 183.29205718 437.59170407 184.68359375 435.78515625 C194.52891309 422.86232354 201.9613684 408.7769869 209.02441406 394.1875 C209.76154529 392.67092231 210.51594917 391.16276311 211.2734375 389.65625 C234.74323488 341.22176369 234.73912387 279.04695738 217.96826172 228.71630859 C203.73552679 187.80550487 179.22236935 150.24729204 144.875 123.4375 C144.24819336 122.93959961 143.62138672 122.44169922 142.97558594 121.92871094 C133.34921929 114.28735164 123.61904015 107.40792576 112.875 101.4375 C111.87799072 100.87337402 111.87799072 100.87337402 110.86083984 100.29785156 C97.42886483 92.73027367 83.49867129 87.23837461 68.875 82.4375 C67.36292969 81.92896484 67.36292969 81.92896484 65.8203125 81.41015625 C59.48926015 79.36703271 53.12220346 77.71878949 46.625 76.3125 C45.91230957 76.15402588 45.19961914 75.99555176 44.46533203 75.83227539 C30.53342542 72.92788908 16.6297359 72.10625274 2.43652344 72.17675781 C-0.12328761 72.18749282 -2.68239725 72.17677831 -5.2421875 72.1640625 C-55.89657891 72.11727253 -105.35380517 90.98490473 -144.125 123.4375 Z " fill="#043787" transform="translate(299.125,-0.4375)"/>
<path d="M0 0 C36.3 0 72.6 0 110 0 C110 7.59 110 15.18 110 23 C105.05 22.01 105.05 22.01 100 21 C97.19744675 20.70840999 97.19744675 20.70840999 94.78125 20.734375 C93.91113281 20.73179687 93.04101562 20.72921875 92.14453125 20.7265625 C91.27183594 20.73429687 90.39914062 20.74203125 89.5 20.75 C88.62730469 20.74226563 87.75460937 20.73453125 86.85546875 20.7265625 C80.69835113 20.74480581 74.98812362 21.58819212 69 23 C69.02707031 23.96164062 69.05414063 24.92328125 69.08203125 25.9140625 C69.07859817 30.4754812 68.40025764 34.87803615 67.6875 39.375 C67.48338501 40.70035767 67.48338501 40.70035767 67.27514648 42.05249023 C66.33734196 48.06795222 65.29280269 54.05839268 64.20043945 60.04760742 C62.35379463 70.35933923 60.93081632 80.74321908 59.43310547 91.11010742 C58.98809998 94.0794028 58.50147421 97.03976426 58 100 C59.2271875 99.67644531 60.454375 99.35289062 61.71875 99.01953125 C67.64547542 97.70827803 73.45154143 97.66939084 79.5 97.6875 C81.11455078 97.66333008 81.11455078 97.66333008 82.76171875 97.63867188 C89.44513562 97.63460158 94.82970977 98.45462298 101 101 C102.18207031 101.44601562 103.36414063 101.89203125 104.58203125 102.3515625 C106.7487237 103.20566376 108.91539006 104.05983121 111.08203125 104.9140625 C112.04496094 105.27242188 113.00789063 105.63078125 114 106 C114.64324219 106.29648437 115.28648437 106.59296875 115.94921875 106.8984375 C118.88819042 107.04398657 120.72554379 105.60101757 123.16113281 104.09960938 C136.790208 95.9496685 156.13234839 95.69227072 171.25390625 99.02734375 C172.49011719 99.34832031 173.72632813 99.66929687 175 100 C174.71140117 98.04121221 174.41892543 96.08299559 174.125 94.125 C173.96257812 93.03445313 173.80015625 91.94390625 173.6328125 90.8203125 C173.18169808 88.09691801 172.66684818 85.45002236 172.08203125 82.7578125 C170.23380582 73.66296019 169.35818289 64.37755564 168.25268555 55.16943359 C166.98175464 44.63485082 165.47037247 34.33316641 163 24 C156.00803833 21.51582811 149.83923602 20.55153865 142.4375 20.6875 C141.11588867 20.68266602 141.11588867 20.68266602 139.76757812 20.67773438 C133.68182114 20.72713904 129.23633805 21.6141471 123 23 C123 15.41 123 7.82 123 0 C159.3 0 195.6 0 233 0 C233 10.56 233 21.12 233 32 C228.71 32 224.42 32 220 32 C220.0825 33.98 220.165 35.96 220.25 38 C220.60774271 72.24997581 205.96479637 106.60254377 184.0859375 132.51171875 C181.24428779 135.90147693 178.60875758 139.42958276 176 143 C189.03308251 149.16991672 201.58791978 153.3738582 216 155 C215.54388099 156.70892588 215.08499109 158.41711229 214.625 160.125 C214.36976563 161.07632813 214.11453125 162.02765625 213.8515625 163.0078125 C212.98886225 166.03913539 212.01775148 169.01754566 211 172 C195.16806512 170.31895462 181.32004614 166.17456119 167.29296875 158.671875 C163.79167816 156.72956902 163.79167816 156.72956902 160 156 C157.63946598 157.33968954 157.63946598 157.33968954 155.25 159.375 C150.6508757 162.88437195 145.97851272 165.91219374 140.9375 168.75 C140.30166992 169.11399902 139.66583984 169.47799805 139.01074219 169.85302734 C133.85751277 172.72044453 128.50757025 174.90603828 123 177 C122.76727312 172.93846834 122.62545689 168.87864757 122.5 164.8125 C122.39945313 163.08676758 122.39945313 163.08676758 122.296875 161.32617188 C122.10339394 152.98230126 122.10339394 152.98230126 124.64501953 150.19775391 C126.71253634 148.91107267 128.75567492 147.9379625 131 147 C146.91154882 136.64561898 160.6898729 123.26258287 169 106 C153.00043768 103.02333724 136.46322895 105.55268588 122 113 C121.31292969 113.5671875 120.62585938 114.134375 119.91796875 114.71875 C118 116 118 116 115.9921875 115.83203125 C113.88252149 114.95093544 112.06062418 113.90385527 110.125 112.6875 C98.731372 106.17955023 85.92241563 104.82322871 73.0625 104.9375 C72.09248047 104.94201172 71.12246094 104.94652344 70.12304688 104.95117188 C67.7486324 104.9628685 65.37434979 104.97925914 63 105 C69.29841329 115.85500875 76.05772356 125.18497047 85 134 C85.72574219 134.73605469 86.45148438 135.47210938 87.19921875 136.23046875 C90.6327268 139.50701644 93.75831565 141.96270094 98.11328125 143.86328125 C107.19113187 148.07970923 107.19113187 148.07970923 110 152 C112.00142934 159.78530163 110.97981703 168.11058864 110 176 C104.62724331 175.4543294 100.67099224 173.58708676 96 171.0625 C94.89047974 170.47601685 94.89047974 170.47601685 93.75854492 169.87768555 C87.98363031 166.74174167 82.69650927 163.12607613 77.64257812 158.92407227 C75.8897866 157.48011363 75.8897866 157.48011363 73 156 C69.93239989 156.40172839 69.93239989 156.40172839 67 158 C65.90945312 158.51175781 64.81890625 159.02351562 63.6953125 159.55078125 C61.92800781 160.42283203 61.92800781 160.42283203 60.125 161.3125 C48.49985333 166.88273116 35.00950209 172 22 172 C21.16080602 169.73117913 20.32848276 167.46022973 19.5 165.1875 C19.26152344 164.54490234 19.02304688 163.90230469 18.77734375 163.24023438 C17.72931254 160.35066261 17 158.09923939 17 155 C17.64324219 154.88519287 18.28648437 154.77038574 18.94921875 154.65209961 C32.44964644 152.18817526 44.74176845 149.25530345 57 143 C54.2027262 139.21990028 51.38918894 135.46650859 48.43359375 131.80859375 C36.47301495 116.96861635 27.43319291 100.94572414 21 83 C20.66097656 82.05898438 20.32195312 81.11796875 19.97265625 80.1484375 C14.85118651 64.54224214 12.15320812 48.41835363 13 32 C8.71 32 4.42 32 0 32 C0 21.44 0 10.88 0 0 Z " fill="#FDFCFC" transform="translate(183,263)"/>
<path d="M0 0 C0.89339081 -0.00067474 1.78678162 -0.00134949 2.70724487 -0.00204468 C15.92460151 0.01381005 28.65377253 0.52901669 41.625 3.25 C42.57101074 3.43755859 43.51702148 3.62511719 44.49169922 3.81835938 C60.12236117 6.92588683 75.04810787 10.68557176 89.625 17.25 C90.37813477 17.58773437 91.13126953 17.92546875 91.90722656 18.2734375 C125.76438954 33.57312938 156.58898604 55.86199615 179.625 85.25 C180.41519531 86.22324219 181.20539063 87.19648438 182.01953125 88.19921875 C189.07169028 97.05051127 194.97154494 106.45533094 200.625 116.25 C201.02605957 116.94077637 201.42711914 117.63155273 201.84033203 118.34326172 C231.67554855 170.33892022 236.85972436 232.93841789 221.625 290.25 C218.57679946 301.45446425 214.77139585 312.0171939 209.5546875 322.39208984 C208.58936378 324.3212163 207.65240181 326.26239772 206.71875 328.20703125 C191.83828337 358.94611066 169.87297927 387.47262187 142.625 408.25 C141.98175781 408.74258301 141.33851563 409.23516602 140.67578125 409.74267578 C129.84171564 417.97085824 118.73044761 425.04964878 106.625 431.25 C105.89265137 431.6310791 105.16030273 432.0121582 104.40576172 432.40478516 C83.32522791 443.2762448 60.97858287 450.31970531 37.625 454.25 C36.696875 454.41226074 35.76875 454.57452148 34.8125 454.74169922 C-21.46498031 464.31558939 -81.82029955 449.98211047 -128.4375 417.125 C-170.91659726 386.5201539 -205.32783762 342.29431149 -218.9375 291.125 C-219.38246826 289.46295532 -219.38246826 289.46295532 -219.83642578 287.76733398 C-229.99818893 248.36622124 -230.9691533 205.47336082 -219.375 166.25 C-219.14474121 165.46463867 -218.91448242 164.67927734 -218.67724609 163.87011719 C-209.07230231 131.81245916 -192.79105891 102.13355192 -170.375 77.25 C-169.81876953 76.63205566 -169.26253906 76.01411133 -168.68945312 75.37744141 C-125.00204349 27.14026564 -65.01549591 0.04416864 0 0 Z M-45.375 11.25 C-46.80711594 11.55421384 -48.23939789 11.85764764 -49.671875 12.16015625 C-86.58208608 20.32950857 -120.85903658 39.56843414 -148.375 65.25 C-150.0206847 66.68767016 -151.66652128 68.12516647 -153.3125 69.5625 C-169.39455912 84.11412916 -181.5673129 101.57121648 -192.375 120.25 C-192.74077148 120.87165039 -193.10654297 121.49330078 -193.48339844 122.13378906 C-205.64633348 142.95353609 -213.23397172 166.57581948 -217.375 190.25 C-217.56964844 191.34957031 -217.76429688 192.44914063 -217.96484375 193.58203125 C-219.26793869 201.44815908 -220.08937373 209.28253032 -220.375 217.25 C-220.42599854 218.65427246 -220.42599854 218.65427246 -220.47802734 220.08691406 C-221.18005271 243.00073699 -218.40863661 265.14186384 -212.375 287.25 C-212.16117676 288.04599609 -211.94735352 288.84199219 -211.72705078 289.66210938 C-208.60721438 301.11985719 -204.8168492 311.67246734 -199.375 322.25 C-198.96056641 323.07177734 -198.54613281 323.89355469 -198.11914062 324.74023438 C-192.77505609 335.32815366 -187.36251479 345.64042377 -180.375 355.25 C-179.65699219 356.25160156 -178.93898437 357.25320313 -178.19921875 358.28515625 C-173.9212112 364.12954999 -169.40398649 369.62063164 -164.49609375 374.9453125 C-162.55578608 377.05356577 -160.6780018 379.20069632 -158.8125 381.375 C-151.98237048 389.17416392 -144.51711246 395.84001715 -136.375 402.25 C-135.50617188 402.94738281 -134.63734375 403.64476562 -133.7421875 404.36328125 C-106.5592291 425.54430439 -75.10606101 439.57468093 -41.375 446.25 C-40.10124512 446.51256592 -38.82749023 446.77513184 -37.51513672 447.0456543 C-26.20481282 449.24194596 -15.17303703 449.68564612 -3.66992188 449.58618164 C-0.74581423 449.56246605 2.17738191 449.56566642 5.1015625 449.57226562 C20.03740519 449.55099342 34.32691846 448.26592586 48.9375 445 C49.90751953 444.78456543 50.87753906 444.56913086 51.87695312 444.34716797 C65.99379154 441.11802197 79.51002811 436.92663717 92.44433594 430.35595703 C94.03675104 429.54833943 95.63453189 428.7512769 97.23535156 427.96044922 C119.98139158 416.71279492 139.18784469 402.62546519 157.625 385.25 C158.3571875 384.56035156 159.089375 383.87070312 159.84375 383.16015625 C177.59766289 365.93463363 190.97684033 344.44235451 201.62524414 322.2800293 C202.32946802 320.85008509 203.06045786 319.43316896 203.81030273 318.02661133 C207.44867528 311.11321153 209.8978268 304.02070432 212.1875 296.5625 C212.47972946 295.61665543 212.47972946 295.61665543 212.77786255 294.65170288 C216.45729185 282.66333734 218.94290653 270.67493577 220.625 258.25 C220.85023242 256.74739164 221.07549142 255.24478726 221.30078125 253.7421875 C223.85706476 235.42663313 223.61125651 216.48091164 220.625 198.25 C220.39098163 196.66048552 220.15933739 195.07062025 219.9296875 193.48046875 C214.3008811 155.15259224 198.32210322 119.14746052 173.625 89.25 C172.9134375 88.38616699 172.9134375 88.38616699 172.1875 87.50488281 C162.59813704 75.93646513 152.46139128 65.55916179 140.625 56.25 C139.65046875 55.45851562 138.6759375 54.66703125 137.671875 53.8515625 C121.36967034 40.86714321 102.28898566 29.31218925 82.625 22.25 C81.37479167 21.77659148 80.12481608 21.30256811 78.875 20.828125 C67.02668042 16.39101518 55.0966237 12.93844855 42.6875 10.4375 C41.67051025 10.2307666 40.65352051 10.0240332 39.60571289 9.81103516 C26.25445696 7.23419183 12.92786598 6.97602758 -0.625 6.9375 C-1.95059937 6.93357239 -1.95059937 6.93357239 -3.30297852 6.92956543 C-17.68194875 6.92501306 -31.3292378 7.99781265 -45.375 11.25 Z " fill="#F5F3F7" transform="translate(298.375,71.75)"/>
<path d="M0 0 C0.82910889 -0.00459229 1.65821777 -0.00918457 2.51245117 -0.01391602 C9.38582461 0.1085745 14.66305185 1.61256533 20.95703125 4.44140625 C26.2262859 6.20242845 30.24708571 4.39016899 35.1875 2.375 C44.32374611 -0.75025772 58.19104589 -1.87561027 67.26782227 2.19604492 C69.41565118 3.79301963 69.58474825 4.76774959 70.0703125 7.37109375 C70.22209961 8.17844971 70.37388672 8.98580566 70.53027344 9.81762695 C71.24057927 14.38734632 71.79330078 18.96760577 72.3125 23.5625 C73.43149997 33.06547188 74.88539511 42.46055423 76.66748047 51.86181641 C77.58446063 56.81708774 78.13800373 61.39725106 77.9375 66.4375 C77.31931396 66.42178955 76.70112793 66.4060791 76.06420898 66.38989258 C59.86487867 66.03358248 45.46794159 66.21821819 30.62109375 73.546875 C27.29580172 74.65046537 25.29578999 74.34041473 21.9375 73.4375 C20.9475 72.7775 19.9575 72.1175 18.9375 71.4375 C16.33430026 70.68521218 13.75755248 70.00270744 11.125 69.375 C10.42568359 69.20162109 9.72636719 69.02824219 9.00585938 68.84960938 C1.06844071 66.91166151 -6.26858189 66.30648649 -14.4375 66.375 C-15.97083984 66.38176758 -15.97083984 66.38176758 -17.53515625 66.38867188 C-20.04433194 66.400397 -22.5533849 66.41680824 -25.0625 66.4375 C-24.44583502 57.79630962 -23.43548992 49.25895648 -22.1875 40.6875 C-21.92296021 38.84913574 -21.92296021 38.84913574 -21.65307617 36.97363281 C-20.51444199 29.18498365 -19.23787725 21.44886027 -17.67578125 13.734375 C-16.97665833 9.9760327 -16.50598664 6.23407726 -16.0625 2.4375 C-10.61936668 0.63278602 -5.72500356 0.01920947 0 0 Z " fill="#FDFCFD" transform="translate(273.0625,288.5625)"/>
<path d="M0 0 C6 4 6 4 12 8 C12.42996216 10.73457336 12.42996216 10.73457336 12.50830078 14.26293945 C12.544888 15.58223953 12.58147522 16.90153961 12.61917114 18.26081848 C12.64474958 19.71163593 12.67012471 21.16245697 12.6953125 22.61328125 C12.732093 24.10389101 12.77027128 25.59446688 12.80978394 27.08500671 C12.9108688 31.02371696 12.99489514 34.96260506 13.0748291 38.90179443 C13.20521772 45.16695161 13.36347542 51.43148732 13.51757431 57.69609642 C13.56893599 59.86758481 13.61446962 62.03912611 13.65872192 64.21076965 C13.81824071 71.58107692 14.15671903 78.90369724 14.7723999 86.25090027 C15.03356406 89.40540817 15.19813367 92.55580323 15.31640625 95.71875 C15.37924805 97.39517578 15.37924805 97.39517578 15.44335938 99.10546875 C15.48267578 100.22566406 15.52199219 101.34585938 15.5625 102.5 C15.60568359 103.62019531 15.64886719 104.74039063 15.69335938 105.89453125 C15.97335426 113.60105705 16.03727952 121.28846426 16 129 C11.38 129 6.76 129 2 129 C1.7328285 118.52978743 1.471824 108.05943828 1.21769714 97.58890057 C1.09939056 92.7215464 0.97932694 87.854252 0.85449219 82.98706055 C0.14660657 55.31919027 -0.13630459 27.67677783 0 0 Z " fill="#FCF8F9" transform="translate(317,126)"/>
<path d="M0 0 C0.21064755 25.83875743 -0.36802711 51.65779639 -0.92712402 77.48901367 C-1.05008925 83.20226243 -1.16940079 88.91558752 -1.2890625 94.62890625 C-1.5225599 105.75267972 -1.75996252 116.87636586 -2 128 C-6.62 128 -11.24 128 -16 128 C-16.10076793 117.92320651 -15.91437498 107.8840033 -15.5625 97.8125 C-15.52326416 96.65008789 -15.48402832 95.48767578 -15.44360352 94.29003906 C-15.40162842 93.14889648 -15.35965332 92.00775391 -15.31640625 90.83203125 C-15.27974854 89.82889893 -15.24309082 88.8257666 -15.20532227 87.79223633 C-15.02826056 84.52196339 -14.77071402 81.27475133 -14.49389648 78.01196289 C-13.91741071 70.66431235 -13.83943214 63.34356432 -13.78125 55.9765625 C-13.72958239 52.40466837 -13.66513249 48.83299068 -13.60187531 45.26128578 C-13.53894983 41.55991739 -13.49227583 37.85961583 -13.47851562 34.15771484 C-13.46410861 30.53633517 -13.40625888 26.91792551 -13.31932068 23.29758835 C-13.29418755 21.93035856 -13.28456608 20.56274477 -13.29139709 19.19530106 C-13.33172194 8.63579108 -13.33172194 8.63579108 -10.01733398 4.56463623 C-4.38707886 0 -4.38707886 0 0 0 Z " fill="#FCF8FA" transform="translate(282,127)"/>
<path d="M0 0 C-0.11536362 3.93783872 -0.24440761 7.8751393 -0.375 11.8125 C-0.42140625 13.40481445 -0.42140625 13.40481445 -0.46875 15.02929688 C-0.74769388 23.1884053 -1.30911744 31.30313049 -1.94140625 39.44140625 C-2.72506839 49.60303628 -3.33828073 59.76520738 -3.81640625 69.9453125 C-3.86347717 70.942842 -3.86347717 70.942842 -3.91149902 71.96052361 C-4.16628016 77.38268235 -4.41295352 82.80520301 -4.65722656 88.22784424 C-4.81311732 91.68644607 -4.97068092 95.14494768 -5.13328552 98.60324097 C-5.2532692 101.1615797 -5.36919281 103.72011282 -5.48060608 106.27883911 C-5.53413742 107.41288177 -5.58766876 108.54692444 -5.64282227 109.71533203 C-5.71038475 111.21533249 -5.71038475 111.21533249 -5.77931213 112.74563599 C-6 115 -6 115 -7 116 C-10.59499796 116.11109388 -14.17884273 116.06145187 -17.77514648 116.02905273 C-18.83934814 116.01946533 -19.9035498 116.00987793 -21 116 C-20.94181595 115.23758499 -20.8836319 114.47516998 -20.82368469 113.68965149 C-20.28894376 106.46810159 -19.83229031 99.24655275 -19.43432617 92.01635742 C-18.93689472 82.98752236 -18.38667011 73.9629647 -17.80155468 64.93938732 C-17.45148419 59.50873441 -17.12291245 54.07845316 -16.84106445 48.64379883 C-16.56542435 43.34581504 -16.23421133 38.0539294 -15.86486244 32.76168251 C-15.73470917 30.75794951 -15.62425668 28.75282921 -15.53456688 26.74687767 C-14.78032986 10.31067068 -14.78032986 10.31067068 -10.19204712 5.71890259 C-3.27822932 0 -3.27822932 0 0 0 Z " fill="#FBF7F9" transform="translate(264,139)"/>
<path d="M0 0 C11.09170619 5.42302652 11.09170619 5.42302652 12.89355469 10.53515625 C13.4096268 13.69756101 13.68033435 16.80159271 13.875 20 C13.97538574 21.16885742 14.07577148 22.33771484 14.17919922 23.54199219 C14.49470988 27.35941875 14.7519907 31.17762765 15 35 C15.09475267 36.36139461 15.19046611 37.72272267 15.28710938 39.08398438 C15.82477023 46.67986426 16.31928131 54.27708456 16.75048828 61.87988281 C16.92543566 64.06758094 17.18100023 66.24961492 17.49560547 68.42163086 C18.01952926 72.13854807 18.28903006 75.80347483 18.5 79.55078125 C18.54060547 80.24962936 18.58121094 80.94847748 18.62304688 81.66850281 C18.7514846 83.8830193 18.87611003 86.09772479 19 88.3125 C19.50236112 97.22842867 20.01827519 106.12064975 21 115 C16.05 115 11.1 115 6 115 C5.91435791 113.26508301 5.82871582 111.53016602 5.74047852 109.74267578 C5.45517474 103.97507565 5.16753997 98.20759423 4.87835789 92.44018745 C4.70331539 88.94749341 4.5291743 85.45475953 4.35717773 81.96191406 C4.15886092 77.93540529 3.9564716 73.90910979 3.75390625 69.8828125 C3.6934462 68.64387238 3.63298615 67.40493225 3.57069397 66.12844849 C3.26675239 60.14723125 2.86720783 54.20505765 2.22962952 48.25018311 C1.87316069 44.75707757 1.66389452 41.25897131 1.46484375 37.75390625 C1.42186661 37.01728256 1.37888947 36.28065887 1.33460999 35.52171326 C1.24535301 33.97995086 1.1571796 32.43812536 1.07006836 30.89624023 C0.93795775 28.57055825 0.80022122 26.24525426 0.66210938 23.91992188 C0.19949889 15.93869372 -0.14737551 7.99866947 0 0 Z " fill="#FCF7F9" transform="translate(335,140)"/>
<path d="M0 0 C-0.14075205 2.93782469 -0.2873838 5.87515171 -0.4375 8.8125 C-0.47681641 9.64587891 -0.51613281 10.47925781 -0.55664062 11.33789062 C-0.59853516 12.14033203 -0.64042969 12.94277344 -0.68359375 13.76953125 C-0.72025146 14.50792236 -0.75690918 15.24631348 -0.79467773 16.00708008 C-1 18 -1 18 -2 21 C-2.24617316 22.87525857 -2.45101362 24.75605832 -2.63256836 26.63867188 C-2.74616196 27.79838501 -2.85975555 28.95809814 -2.97679138 30.1529541 C-3.09659866 31.41216675 -3.21640594 32.67137939 -3.33984375 33.96875 C-3.53407775 35.96380465 -3.72831234 37.95885925 -3.92257786 39.95391083 C-4.1950067 42.76100087 -4.46419334 45.56839855 -4.73345947 48.37579346 C-5.26250785 53.88356218 -5.79801232 59.39070992 -6.3325386 64.89794922 C-6.4621704 66.23435964 -6.59164435 67.57078539 -6.72095871 68.90722656 C-7.75670204 79.61115092 -8.84335069 90.30848512 -10 101 C-14.62 101 -19.24 101 -24 101 C-24.09484416 94.94009521 -23.80183113 89.14825371 -23.01171875 83.14453125 C-22.90885056 82.32871582 -22.80598236 81.51290039 -22.69999695 80.67236328 C-22.36803702 78.05166793 -22.0280137 75.43209641 -21.6875 72.8125 C-21.45552149 70.99768729 -21.22391524 69.18282695 -20.99267578 67.36791992 C-18.11909237 44.89244675 -18.11909237 44.89244675 -17.0065918 37.29736328 C-16.37406376 32.97789101 -15.87688891 28.68932494 -15.5390625 24.3359375 C-14.25580091 9.8977008 -14.25580091 9.8977008 -10.43359375 5.6875 C-3.61748047 0 -3.61748047 0 0 0 Z " fill="#FBF6F8" transform="translate(245,154)"/>
<path d="M0 0 C0.61278809 0.30744141 1.22557617 0.61488281 1.85693359 0.93164062 C3.32805673 1.6650235 4.80588415 2.3850641 6.2890625 3.09375 C9.16168354 4.82308708 10.96041114 6.31400601 13 9 C14.24681881 14.18275107 14.52261185 19.27729758 14.81542969 24.5859375 C15.10542274 28.37886252 15.80446914 32.07646997 16.5 35.8125 C17.8486627 43.36852284 18.66087532 50.91935122 19.265625 58.56958008 C19.61073167 62.72510395 20.10413924 66.72726163 20.98828125 70.8046875 C22.27105467 76.86568815 22.68731781 82.9543986 23.125 89.125 C23.21136719 90.27226562 23.29773438 91.41953125 23.38671875 92.6015625 C23.59664914 95.40063436 23.79910301 98.20026529 24 101 C19.38 101 14.76 101 10 101 C8.65850504 93.04046322 7.71748585 85.25475726 7.34375 77.19140625 C7.1202248 73.7478982 6.62024892 70.37904483 6.09765625 66.96875 C4.58333777 56.67152116 3.80814371 46.30517485 2.9375 35.9375 C2.76271983 33.89515231 2.58759167 31.85283436 2.41210938 29.81054688 C1.56191829 19.87716413 0.7351244 9.94264688 0 0 Z " fill="#FBF7F9" transform="translate(354,154)"/>
<path d="M0 0 C4.14433333 2.02861449 8.06087825 4.35227372 12 6.75 C12.7115625 7.16765625 13.423125 7.5853125 14.15625 8.015625 C18.69798854 10.79489784 21.22712145 13.34233074 24 18 C29.16176739 23.19881356 33.08578464 24.22219476 40.25 24.3125 C41.37728516 24.35600586 41.37728516 24.35600586 42.52734375 24.40039062 C47.84825989 24.46075006 50.77792769 23.5059391 55 20 C56.75526829 18.28463313 56.75526829 18.28463313 58.125 16.5 C62.07467916 11.59079427 66.14785941 8.05884807 71.5625 4.8125 C72.13935547 4.45736328 72.71621094 4.10222656 73.31054688 3.73632812 C75.85595596 2.18911868 78.16346392 0.94551203 81 0 C78.50324557 12.25679447 72.56945281 22.24864182 62.51171875 29.890625 C52.95744501 36.01249247 42.49906613 37.4786387 31.328125 35.53515625 C20.51426491 32.69735756 12.57393546 25.87990895 6 17 C2.94177945 11.63355108 0.50461662 6.22360497 0 0 Z " fill="#FBF5F7" transform="translate(259,431)"/>
<path d="M0 0 C4.47803406 2.23901703 8.7781931 5.39565975 11 10 C11.9069433 15.29181697 11.67596881 19.57006598 9.375 24.4375 C4.85670376 29.31250384 1.684939 31.25638274 -5 31.5625 C-8.75645408 31.42285487 -11.52404834 31.23728045 -14.5625 28.9375 C-18.15576471 24.60715535 -20.10435992 20.56864198 -20.4375 14.9375 C-19.80445292 9.24007627 -17.60957696 6.41796066 -13.375 2.6875 C-8.95795653 -0.45092562 -5.32630779 -0.63879705 0 0 Z " fill="#EFF1F7" transform="translate(281,23)"/>
<path d="M0 0 C3.5 1.6875 3.5 1.6875 6 4 C6.78375 4.680625 7.5675 5.36125 8.375 6.0625 C10.89216289 10.61275599 10.72563947 14.92052368 10 20 C7.67253886 25.02731605 3.95884319 28.55711725 -1 31 C-6.41521333 31.7736019 -10.23214095 30.60882854 -15 28 C-19.70765323 22.91064516 -21.46594569 19.35281258 -21.31640625 12.50390625 C-20.85020244 8.81456502 -19.43371533 6.76259578 -17 4 C-16.34 3.21625 -15.68 2.4325 -15 1.625 C-10.17334749 -0.98943678 -5.36122923 -0.72016512 0 0 Z " fill="#EFF1F6" transform="translate(65,176)"/>
<path d="M0 0 C2.8125 1.25 2.8125 1.25 5 3 C5.8125 5.1875 5.8125 5.1875 6 7 C7.36125 7.0928125 7.36125 7.0928125 8.75 7.1875 C12 8 12 8 14.375 10.125 C16.47443089 13.83937772 16.49867828 15.76123461 16 20 C14.47876108 22.75469523 12.5487892 25.05899165 10.5 27.4375 C9.97535156 28.07365234 9.45070313 28.70980469 8.91015625 29.36523438 C7.62192896 30.92281827 6.31297637 32.46322084 5 34 C2.08470741 32.65159655 -0.27559417 31.10913307 -2.75 29.06640625 C-3.4409375 28.49986328 -4.131875 27.93332031 -4.84375 27.34960938 C-5.5553125 26.75986328 -6.266875 26.17011719 -7 25.5625 C-8.41613899 24.39649425 -9.8327898 23.23110978 -11.25 22.06640625 C-11.87390625 21.55021729 -12.4978125 21.03402832 -13.140625 20.50219727 C-15.05934008 18.95205889 -17.0183024 17.46846204 -19 16 C-17.4554297 12.55872939 -15.417316 9.81303858 -13.0625 6.875 C-12.37285156 6.00617188 -11.68320313 5.13734375 -10.97265625 4.2421875 C-7.48994221 0.28361748 -5.15791234 -0.51579123 0 0 Z " fill="#F1F3F8" transform="translate(94,120)"/>
<path d="M0 0 C3.3109237 1.62740318 4.97390214 3.3520599 6.90625 6.46875 C8.44754425 11.01459254 8.92694575 15.62821972 7.96875 20.34375 C5.9424475 23.77049398 3.55367974 26.55128513 -0.03125 28.34375 C-10.39680024 29.27772129 -10.39680024 29.27772129 -15.09375 26.59375 C-15.733125 25.85125 -16.3725 25.10875 -17.03125 24.34375 C-17.5571875 23.75851562 -18.083125 23.17328125 -18.625 22.5703125 C-21.32703025 18.29209794 -20.61799927 13.21376894 -20.03125 8.34375 C-16.03432482 -0.09420316 -8.78155013 -2.83711619 0 0 Z " fill="#ECEFF5" transform="translate(339.03125,546.65625)"/>
<path d="M0 0 C3 1 3 1 4.53515625 3.87890625 C5.03917969 5.09449219 5.54320312 6.31007813 6.0625 7.5625 C6.56910156 8.76003906 7.07570312 9.95757812 7.59765625 11.19140625 C10.28653861 18.20390984 11.29404774 24.49688087 11.125 32 C11.11597656 32.77472656 11.10695312 33.54945313 11.09765625 34.34765625 C11.07439388 36.23190843 11.0385364 38.11599832 11 40 C-5.84667025 40.60466613 -18.27667725 38.85169704 -33 30 C-30.12969302 27.12969302 -27.84004053 27.71187193 -23.9128418 27.671875 C-22.50192261 27.67960937 -22.50192261 27.67960937 -21.0625 27.6875 C-20.1135083 27.68878906 -19.1645166 27.69007813 -18.18676758 27.69140625 C-11.44213734 27.78382218 -5.32642724 28.51091387 1 31 C0.505 29.2984375 0.505 29.2984375 0 27.5625 C-1.07724396 22.77220237 -1.19168297 18.135187 -1.1875 13.25 C-1.18814453 12.51724854 -1.18878906 11.78449707 -1.18945312 11.02954102 C-1.15135283 7.23639694 -0.90737013 3.6875522 0 0 Z " fill="#EFF1F7" transform="translate(136,477)"/>
<path d="M0 0 C0.66 0 1.32 0 2 0 C3.28562176 4.94707255 3.18380452 9.86360351 3.1875 14.9375 C3.19974609 15.81857422 3.21199219 16.69964844 3.22460938 17.60742188 C3.23556229 22.48147057 2.90660484 26.42565557 1 31 C1.89247437 30.68059448 1.89247437 30.68059448 2.80297852 30.35473633 C9.31990438 28.1891799 15.09784982 27.56562455 21.9375 27.6875 C22.86884766 27.68427734 23.80019531 27.68105469 24.75976562 27.67773438 C31.59806871 27.73204581 31.59806871 27.73204581 35 30 C19.65255228 38.18784431 8.33762908 40.33995351 -9 40 C-9.51879889 24.85875823 -7.39844506 13.50395797 0 0 Z " fill="#F1F2F7" transform="translate(461,477)"/>
<path d="M0 0 C4.44652306 4.44652306 4.12990285 12.8059405 4.1875 18.8125 C4.11649703 22.62481341 3.80826133 26.26179135 3 30 C4.19625 29.525625 5.3925 29.05125 6.625 28.5625 C13.29936597 25.91576867 19.80167026 25.86825807 26.875 25.9375 C27.75414062 25.94201172 28.63328125 25.94652344 29.5390625 25.95117188 C31.69273803 25.96287663 33.84637817 25.98080931 36 26 C36 26.66 36 27.32 36 28 C24.37130945 34.4501696 13.87938345 40.15583571 0.25 40.125 C-0.89984375 40.12757813 -2.0496875 40.13015625 -3.234375 40.1328125 C-6 40 -6 40 -7 39 C-8.32965618 25.21559192 -7.53947373 11.92489828 0 0 Z " fill="#F1F3F8" transform="translate(479,458)"/>
<path d="M0 0 C0.66 0 1.32 0 2 0 C2.43289823 14.14134218 2.31281754 27.3916939 -5 40 C-18.0212665 39.40812425 -27.94317089 30.51059806 -36.3984375 21.421875 C-38.29580148 19.30481625 -40.1635276 17.16991013 -42 15 C-37.9609057 13.65363523 -35.37036374 14.98599639 -31.5625 16.4375 C-30.85544922 16.70320801 -30.14839844 16.96891602 -29.41992188 17.24267578 C-22.61607514 19.92832403 -16.86603088 23.62269666 -11 28 C-10.9484375 27.3915625 -10.896875 26.783125 -10.84375 26.15625 C-9.77778729 17.91926544 -6.08512689 6.08512689 0 0 Z " fill="#F4F5F9" transform="translate(78,394)"/>
<path d="M0 0 C0.66 0 1.32 0 2 0 C5.06765629 13.91401246 4.13376567 25.50300608 0 39 C-0.33 39.33 -0.66 39.66 -1 40 C-16.13890539 39.50364245 -28.31886969 31.12811364 -38.6015625 20.6015625 C-40 19 -40 19 -40 18 C-27.87040402 18.80863973 -17.6405741 23.34012016 -7 29 C-7.04640625 28.42894531 -7.0928125 27.85789062 -7.140625 27.26953125 C-7.57933214 17.41428864 -4.5268986 8.66466551 0 0 Z " fill="#F2F4F8" transform="translate(89,417)"/>
<path d="M0 0 C4.40274928 3.77550829 4.47751492 8.45453334 5 14 C5.72211953 31.55472582 5.72211953 31.55472582 4 40 C-10.84071929 41.07067313 -23.04785532 35.59113949 -34.84375 26.90625 C-35.5553125 26.2771875 -36.266875 25.648125 -37 25 C-37 24.34 -37 23.68 -37 23 C-25.75712721 22.30055861 -14.78059643 24.32725407 -5 30 C-5.04640625 29.06800781 -5.0928125 28.13601563 -5.140625 27.17578125 C-5.4152579 17.47535476 -4.43116888 8.86233776 0 0 Z " fill="#F2F4F8" transform="translate(103,438)"/>
<path d="M0 0 C3.49242149 2.32828099 3.79569753 3.44496251 5.125 7.3125 C5.45757812 8.25738281 5.79015625 9.20226562 6.1328125 10.17578125 C7.46507292 14.51462936 8.12676911 18.50742305 8.1328125 23.046875 C8.13474609 24.43712891 8.13474609 24.43712891 8.13671875 25.85546875 C8.13285156 26.81066406 8.12898438 27.76585937 8.125 28.75 C8.13080078 30.20599609 8.13080078 30.20599609 8.13671875 31.69140625 C8.13542969 32.61308594 8.13414063 33.53476562 8.1328125 34.484375 C8.13168457 35.32709961 8.13055664 36.16982422 8.12939453 37.03808594 C8 39 8 39 7 40 C-8.42579633 40.22218225 -22.43097415 37.67502892 -35 28 C-35 27.34 -35 26.68 -35 26 C-23.26125484 25.64783765 -13.24006248 26.25331251 -2 30 C-2.01571045 28.95658447 -2.01571045 28.95658447 -2.03173828 27.89208984 C-2.07348637 24.71976377 -2.09938585 21.54749569 -2.125 18.375 C-2.14175781 17.28058594 -2.15851563 16.18617188 -2.17578125 15.05859375 C-2.23662606 5.01920021 -2.23662606 5.01920021 0 0 Z " fill="#F3F4F9" transform="translate(119,458)"/>
<path d="M0 0 C2 1 2 1 3.0703125 3.88671875 C5.56480758 12.87613991 6.52076996 20.61167485 6 30 C6.68964844 29.66226562 7.37929688 29.32453125 8.08984375 28.9765625 C18.41570779 24.0756723 26.58128513 22.65222188 38 23 C38 23.66 38 24.32 38 25 C26.0226524 35.28143998 12.63558431 40.58755849 -3 40 C-4.02097358 34.04706535 -4.21709586 28.22129641 -4.25 22.1875 C-4.270625 21.25357422 -4.29125 20.31964844 -4.3125 19.35742188 C-4.34880526 12.81793688 -3.40467553 7.10544912 -1 1 C-0.67 0.67 -0.34 0.34 0 0 Z " fill="#F3F5F9" transform="translate(495,438)"/>
<path d="M0 0 C5.59703932 1.86567977 8.23931364 8.95074064 11 14 C12.78666185 17.62034111 14.44682511 21.27387371 16 25 C16.53367187 24.49210937 17.06734375 23.98421875 17.6171875 23.4609375 C24.16712294 17.40961307 31.3718743 11.72033262 40 9 C42.3125 9.375 42.3125 9.375 44 10 C35.82166629 22.01621099 26.93384769 32.77008698 13 38 C10.84375 38.078125 10.84375 38.078125 9 37 C7.57653817 34.84078259 6.46620268 32.88126808 5.375 30.5625 C5.06941162 29.92578369 4.76382324 29.28906738 4.44897461 28.63305664 C0.05087601 19.14468791 -0.29298003 10.38451423 0 0 Z " fill="#F4F5F9" transform="translate(529,371)"/>
<path d="M0 0 C8.50821824 3.89487324 15.50184286 11.54947534 19.375 20 C19.58125 20.66 19.7875 21.32 20 22 C20.66 22 21.32 22 22 22 C22.2475 21.27554687 22.495 20.55109375 22.75 19.8046875 C26.5660285 11.24247355 35.01170245 4.56042695 43 0 C43.66 0 44.32 0 45 0 C42.86612896 13.92220736 33.32195429 24.2089427 23.4140625 33.3984375 C21 35 21 35 18.9296875 35.01953125 C11.07914032 30.87177252 6.16598112 19.87056988 3 12 C1.80276101 8.03329873 0.8207441 4.06052344 0 0 Z " fill="#F4F6F9" transform="translate(538,321)"/>
<path d="M0 0 C9.54642793 3.2912775 17.74433992 11.51560676 23 20 C23 20.66 23 21.32 23 22 C25.66444095 19.53988734 27.57875737 16.79765643 29.625 13.8125 C33.45600948 8.47746458 37.66136016 3.86552968 43 0 C43.66 0 44.32 0 45 0 C44.44368268 5.3684621 43.16847026 9.81695573 41 14.75 C40.69602295 15.44230713 40.3920459 16.13461426 40.07885742 16.84790039 C37.03963286 23.43326809 32.7471582 31.74942788 25.96484375 34.96484375 C22.39409169 35.02873395 20.61550085 32.46947946 18.14453125 30.140625 C17.43683594 29.43421875 16.72914062 28.7278125 16 28 C15.32324219 27.33484375 14.64648438 26.6696875 13.94921875 25.984375 C7.09647001 18.79896856 1.18676032 10.01986245 0 0 Z " fill="#F4F6F9" transform="translate(16,321)"/>
<path d="M0 0 C0.33 0 0.66 0 1 0 C1.8464671 14.48399268 -0.47660163 25.82371661 -9 38 C-20.29324187 36.66264241 -28.79837089 28.26993361 -36 20 C-42 12.11976048 -42 12.11976048 -42 9 C-30.61490139 12.13502715 -21.9599538 18.4888898 -13 26 C-12.95875 25.0925 -12.9175 24.185 -12.875 23.25 C-11.59475169 14.37842019 -6.13996196 6.28275177 0 0 Z " fill="#F4F6F9" transform="translate(69,371)"/>
<path d="M0 0 C3 1 3 1 4.60546875 4.17578125 C5.15068326 5.54771967 5.67703135 6.92725792 6.1875 8.3125 C6.45578613 9.02857422 6.72407227 9.74464844 7.00048828 10.48242188 C9.18444934 16.71121748 9.6735346 22.41432832 9 29 C10.0621875 28.44570313 11.124375 27.89140625 12.21875 27.3203125 C13.64561071 26.58810766 15.07270673 25.85636127 16.5 25.125 C17.19609375 24.76019531 17.8921875 24.39539063 18.609375 24.01953125 C26.00927019 20.2510661 32.68185011 18.70292322 41 19 C32.79521881 29.50460622 21.14767445 37.13268802 8 40 C6.00051633 40.04544281 3.99926367 40.05426573 2 40 C-2.27057048 28.40845157 -3.46984397 11.91846205 0 0 Z " fill="#F4F5F9" transform="translate(508,417)"/>
<path d="M0 0 C7.41309305 5.79010818 12.7331979 12.63050358 17 21 C17 21.99 17 22.98 17 24 C18.14628335 23.00051588 19.29198853 22.00036869 20.4375 21 C21.1696875 20.36320312 21.901875 19.72640625 22.65625 19.0703125 C24.19548426 17.71065557 25.71716587 16.33081354 27.21875 14.9296875 C39.02115019 4 39.02115019 4 45 4 C39.76793543 17.76859098 30.46620935 30.38501997 17 37 C14.9921875 36.90234375 14.9921875 36.90234375 13 36 C4.48613444 26.19096026 0.28757286 12.81006374 0 0 Z " fill="#F5F6FA" transform="translate(535,346)"/>
<path d="M0 0 C8.07024663 6.57575652 10.1290729 17.29551633 12 27 C16.35722891 24.92409938 20.47194569 22.40892691 24.60351562 19.921875 C30.09622359 16.71130633 35.52431545 14.60753427 42 15 C35.66578514 26.33491079 24.89176002 34.07927171 13 39 C10.63603895 39.52532468 8.42179724 39.79818356 6 40 C0.45034346 27.67213699 -4.18006064 13.57683695 0 0 Z " fill="#F5F6FA" transform="translate(520,394)"/>
<path d="M0 0 C0.22409736 5.24931083 -0.46521142 9.71829319 -2.0625 14.6875 C-2.38988159 15.72318115 -2.38988159 15.72318115 -2.72387695 16.77978516 C-5.15048142 24.05036554 -8.52556593 31.52556593 -14 37 C-21.7168857 36.41033764 -28.13477956 29.33762194 -33.3046875 24.0234375 C-36.67461797 20.00126242 -39.3196954 15.49813495 -42 11 C-42.56203125 10.10539062 -43.1240625 9.21078125 -43.703125 8.2890625 C-45 6 -45 6 -45 4 C-33.99968624 8.05065705 -25.05848157 15.69732202 -17 24 C-16.73574219 23.12214844 -16.47148438 22.24429687 -16.19921875 21.33984375 C-14.34452462 16.17449038 -6.69587046 0 0 0 Z " fill="#F5F6FA" transform="translate(64,346)"/>
<path d="M0 0 C4.12064736 1.37354912 5.44967228 4.18620973 7.6875 7.6875 C8.10322266 8.30044922 8.51894531 8.91339844 8.94726562 9.54492188 C11.4849611 13.47439122 12.65041601 16.18415378 12 21 C10.4375 23.8125 10.4375 23.8125 8 26 C4.25 26.8125 4.25 26.8125 1 27 C0.91878906 27.59296875 0.83757813 28.1859375 0.75390625 28.796875 C-0.23118234 31.67557949 -1.59207507 32.52462386 -4.0625 34.25 C-4.79597656 34.77078125 -5.52945313 35.2915625 -6.28515625 35.828125 C-6.85105469 36.21484375 -7.41695313 36.6015625 -8 37 C-9.32 36.34 -10.64 35.68 -12 35 C-12 33.68 -12 32.36 -12 31 C-10.46875 29.515625 -10.46875 29.515625 -8.5 28.25 C-7.8503125 27.82203125 -7.200625 27.3940625 -6.53125 26.953125 C-6.0259375 26.63859375 -5.520625 26.3240625 -5 26 C-5.76332396 22.51687125 -7.15447321 20.04913122 -9 17 C-9 16.34 -9 15.68 -9 15 C-9.90492188 15.66708984 -9.90492188 15.66708984 -10.828125 16.34765625 C-12.02695312 17.19650391 -12.02695312 17.19650391 -13.25 18.0625 C-14.03890625 18.63097656 -14.8278125 19.19945312 -15.640625 19.78515625 C-18 21 -18 21 -20.296875 20.68359375 C-20.85890625 20.45800781 -21.4209375 20.23242188 -22 20 C-22.33 18.68 -22.66 17.36 -23 16 C-17.22741345 11.72737689 -11.40716389 7.52208771 -5.5 3.4375 C-4.5203125 2.75558594 -3.540625 2.07367188 -2.53125 1.37109375 C-1.6959375 0.91863281 -0.860625 0.46617187 0 0 Z " fill="#EFF1F7" transform="translate(519,130)"/>
<path d="M0 0 C2.87305972 1.40460697 4.74510999 2.74510999 7 5 C8.31249249 12.86233481 6.84493169 18.98201253 2.7109375 25.70703125 C0.32582923 28.90351196 -1.33186599 30.39519137 -5 32 C-8.62755756 32.51822251 -10.44313424 32.26577684 -13.75 30.6875 C-16 29 -16 29 -18 26 C-18.125 22.8125 -18.125 22.8125 -18 20 C-16.02 20.33 -14.04 20.66 -12 21 C-11.67 22.32 -11.34 23.64 -11 25 C-8.62625139 25.33425735 -8.62625139 25.33425735 -6 25 C-4.15684329 23.0995533 -4.15684329 23.0995533 -3 21 C-4.0725 20.95875 -5.145 20.9175 -6.25 20.875 C-10 20 -10 20 -12.4375 17.3125 C-14.14316653 13.69648696 -14.65466219 11.92797313 -14 8 C-10.35880575 1.47096204 -7.53718616 -0.64975743 0 0 Z " fill="#EEF0F6" transform="translate(204,525)"/>
<path d="M0 0 C1.78341979 3.08045237 1.88686027 4.86510104 1.375 8.375 C0 10.75 0 10.75 -1.625 12.375 C-2.285 12.375 -2.945 12.375 -3.625 12.375 C-3.625 13.035 -3.625 13.695 -3.625 14.375 C-2.92375 14.560625 -2.2225 14.74625 -1.5 14.9375 C2.47140051 16.92320026 4.6823418 19.91433276 7.375 23.375 C6.375 24.375 6.375 24.375 3.8125 24.875 C-0.72434887 24.21509471 -2.41858478 22.08823452 -5.65625 19 C-8.20418524 16.89694234 -10.35409565 16.45677261 -13.625 16.375 C-13.295 17.24125 -12.965 18.1075 -12.625 19 C-11.63768659 22.33218275 -11.46079026 24.92659538 -11.625 28.375 C-13.275 28.705 -14.925 29.035 -16.625 29.375 C-18.66961936 23.6500658 -20.32795852 17.89036315 -21.8125 12 C-21.99135742 11.29810547 -22.17021484 10.59621094 -22.35449219 9.87304688 C-23.07601564 6.96163644 -23.625 4.3868018 -23.625 1.375 C-6.57541482 -4.07049489 -6.57541482 -4.07049489 0 0 Z " fill="#EEF0F6" transform="translate(374.625,541.625)"/>
<path d="M0 0 C2.2109885 0.42793326 3.98119242 0.99059621 6 2 C6.28891106 4.60913493 6.46803699 7.13268342 6.5625 9.75 C6.75410693 14.28333849 7.10484899 18.52424495 8 23 C10.64 18.71 13.28 14.42 16 10 C17.32 10.33 18.64 10.66 20 11 C20.68530273 12.66113281 20.68530273 12.66113281 21 15 C19.82836914 17.56542969 19.82836914 17.56542969 18.03515625 20.421875 C17.40029297 21.44667969 16.76542969 22.47148438 16.11132812 23.52734375 C15.43521484 24.59082031 14.75910156 25.65429688 14.0625 26.75 C13.39025391 27.82894531 12.71800781 28.90789062 12.02539062 30.01953125 C10.36126238 32.68685738 8.68587439 35.346385 7 38 C5.02 37.34 3.04 36.68 1 36 C0.34 28.74 -0.32 21.48 -1 14 C-3.97 18.62 -6.94 23.24 -10 28 C-12.475 27.01 -12.475 27.01 -15 26 C-13.68548454 22.50136058 -12.1445897 19.37030652 -10.21484375 16.171875 C-9.68439453 15.29015625 -9.15394531 14.4084375 -8.60742188 13.5 C-8.05634766 12.5925 -7.50527344 11.685 -6.9375 10.75 C-6.38255859 9.82703125 -5.82761719 8.9040625 -5.25585938 7.953125 C-1.1474084 1.1474084 -1.1474084 1.1474084 0 0 Z " fill="#EEF0F6" transform="translate(436,59)"/>
<path d="M0 0 C7 0 7 0 8.80444336 1.56054688 C9.22862549 2.27275391 9.65280762 2.98496094 10.08984375 3.71875 C10.56357422 4.48574219 11.03730469 5.25273437 11.52539062 6.04296875 C11.99138672 6.85378906 12.45738281 7.66460938 12.9375 8.5 C13.43056641 9.31082031 13.92363281 10.12164062 14.43164062 10.95703125 C15.64383978 12.95774831 16.82499869 14.97721294 18 17 C18.33 11.39 18.66 5.78 19 0 C20.98 0 22.96 0 25 0 C25 10.23 25 20.46 25 31 C19 31 19 31 17.32495117 29.47119141 C16.90189697 28.77171387 16.47884277 28.07223633 16.04296875 27.3515625 C15.57052734 26.59359375 15.09808594 25.835625 14.61132812 25.0546875 C13.9065332 23.85199219 13.9065332 23.85199219 13.1875 22.625 C12.69830078 21.8309375 12.20910156 21.036875 11.70507812 20.21875 C10.05026679 17.51795141 8.41688212 14.83376424 7 12 C6.67 17.94 6.34 23.88 6 30 C4.02 30 2.04 30 0 30 C0 20.1 0 10.2 0 0 Z " fill="#EEF0F6" transform="translate(298,23)"/>
<path d="M0 0 C4.11429487 0.57386146 6.82978955 1.90705637 10.30078125 4.16015625 C11.27724609 4.78857422 12.25371094 5.41699219 13.25976562 6.06445312 C14.26716797 6.72380859 15.27457031 7.38316406 16.3125 8.0625 C17.33923828 8.72572266 18.36597656 9.38894531 19.42382812 10.07226562 C21.95381681 11.70793273 24.47890242 13.35067493 27 15 C25.125 18.875 25.125 18.875 24 20 C22.36933234 20.22714004 20.73023997 20.39455086 19.08984375 20.53515625 C18.10048828 20.62216797 17.11113281 20.70917969 16.09179688 20.79882812 C14.53041992 20.9293457 14.53041992 20.9293457 12.9375 21.0625 C11.37032227 21.19881836 11.37032227 21.19881836 9.77148438 21.33789062 C7.18133462 21.56260681 4.59070791 21.78181282 2 22 C6.62 24.97 11.24 27.94 16 31 C15.67 32.32 15.34 33.64 15 35 C12.60163327 35.86779936 11.46419052 36.20139327 9.08056641 35.16723633 C8.42749512 34.72661865 7.77442383 34.28600098 7.1015625 33.83203125 C6.37453125 33.35056641 5.6475 32.86910156 4.8984375 32.37304688 C4.14820312 31.85806641 3.39796875 31.34308594 2.625 30.8125 C1.51125 30.0690332 1.51125 30.0690332 0.375 29.31054688 C-1.75750804 27.88447922 -3.87902636 26.44314197 -6 25 C-7.99722746 23.66245022 -9.99850132 22.33115547 -12 21 C-10.125 16.125 -10.125 16.125 -9 15 C-7.36743242 14.84285346 -5.72864662 14.74914586 -4.08984375 14.68359375 C-2.60581055 14.62075195 -2.60581055 14.62075195 -1.09179688 14.55664062 C0.46958008 14.49766602 0.46958008 14.49766602 2.0625 14.4375 C3.10728516 14.39431641 4.15207031 14.35113281 5.22851562 14.30664062 C7.81883972 14.20018895 10.40940175 14.09955692 13 14 C8.38 11.03 3.76 8.06 -1 5 C-0.67 3.35 -0.34 1.7 0 0 Z " fill="#F0F2F7" transform="translate(68,143)"/>
<path d="M0 0 C2.20736657 3.90578652 4.38734759 7.82619565 6.5625 11.75 C7.19091797 12.86117187 7.81933594 13.97234375 8.46679688 15.1171875 C9.05654297 16.18710937 9.64628906 17.25703125 10.25390625 18.359375 C10.80377197 19.34389648 11.3536377 20.32841797 11.92016602 21.34277344 C13.07174689 24.17655282 13.13432088 25.21759459 12 28 C7.94700418 29.15665542 6.03041718 28.93512783 2.35546875 26.91015625 C1.51435547 26.45576172 0.67324219 26.00136719 -0.19335938 25.53320312 C-1.05767578 25.04787109 -1.92199219 24.56253906 -2.8125 24.0625 C-3.69615234 23.58103516 -4.57980469 23.09957031 -5.49023438 22.60351562 C-7.66745571 21.41487046 -9.83658188 20.21353194 -12 19 C-11.11634766 20.44632813 -11.11634766 20.44632813 -10.21484375 21.921875 C-9.45507888 23.19752959 -8.69599988 24.47359285 -7.9375 25.75 C-7.54755859 26.38421875 -7.15761719 27.0184375 -6.75585938 27.671875 C-3.91137119 32.50498766 -3.91137119 32.50498766 -4.39672852 35.21582031 C-4.59580811 35.80459961 -4.7948877 36.39337891 -5 37 C-6.98 37.495 -6.98 37.495 -9 38 C-11.17684796 34.0680461 -13.33970903 30.12857136 -15.5 26.1875 C-16.12003906 25.06794922 -16.74007812 23.94839844 -17.37890625 22.79492188 C-17.96542969 21.72177734 -18.55195313 20.64863281 -19.15625 19.54296875 C-19.97319336 18.0583313 -19.97319336 18.0583313 -20.80664062 16.54370117 C-22 14 -22 14 -22 11 C-19 9 -19 9 -17.06933594 9.24584961 C-14.89492898 10.03829216 -12.9288914 10.97006599 -10.890625 12.06640625 C-10.13652344 12.46923828 -9.38242188 12.87207031 -8.60546875 13.28710938 C-7.82816406 13.70798828 -7.05085937 14.12886719 -6.25 14.5625 C-5.45722656 14.98724609 -4.66445312 15.41199219 -3.84765625 15.84960938 C-1.89628933 16.89582417 0.05279814 17.94605953 2 19 C1.22462891 17.55367187 1.22462891 17.55367187 0.43359375 16.078125 C-0.2324029 14.80241311 -0.89773282 13.52635299 -1.5625 12.25 C-2.07586914 11.29867187 -2.07586914 11.29867187 -2.59960938 10.328125 C-5.03989168 5.59545629 -5.03989168 5.59545629 -4.83984375 2.609375 C-3.63258212 0.2959248 -2.55741533 0 0 0 Z " fill="#F0F2F7" transform="translate(183,47)"/>
<path d="M0 0 C3.35957612 1.44945365 5.40245759 4.53140982 7.6730957 7.30273438 C8.20064453 7.93260254 8.72819336 8.5624707 9.27172852 9.21142578 C13.24911144 13.98501688 17.12809071 18.83482279 20.8605957 23.80273438 C17.2355957 26.80273438 17.2355957 26.80273438 13.8605957 26.80273438 C12.1730957 24.80273438 12.1730957 24.80273438 10.8605957 22.80273438 C8.8605957 23.13606771 6.8605957 23.46940104 4.8605957 23.80273438 C2.8605957 24.13606771 0.8605957 24.46940104 -1.1394043 24.80273438 C-1.1394043 27.44273438 -1.1394043 30.08273438 -1.1394043 32.80273438 C-3.1194043 33.46273437 -5.0994043 34.12273437 -7.1394043 34.80273438 C-7.1394043 23.91273437 -7.1394043 13.02273437 -7.1394043 1.80273438 C-2.1394043 -0.19726562 -2.1394043 -0.19726562 0 0 Z " fill="#E9ECF4" transform="translate(206.139404296875,38.197265625)"/>
<path d="M0 0 C2.64 0 5.28 0 8 0 C8.98455006 4.01953458 9.96167239 8.04083975 10.9375 12.0625 C11.35418945 13.7630957 11.35418945 13.7630957 11.77929688 15.49804688 C13.10752261 20.98697972 14.35637152 26.38658197 15 32 C13.02 32 11.04 32 9 32 C8.34 29.69 7.68 27.38 7 25 C3.04 24.67 -0.92 24.34 -5 24 C-6.485 26.475 -6.485 26.475 -8 29 C-11.1875 29.3125 -11.1875 29.3125 -14 29 C-13.40480747 25.10455244 -12.22406512 22.20539394 -10.3125 18.76953125 C-9.77882813 17.80208984 -9.24515625 16.83464844 -8.6953125 15.83789062 C-7.85613281 14.34032227 -7.85613281 14.34032227 -7 12.8125 C-5.89577484 10.81904282 -4.79160535 8.8255548 -3.6875 6.83203125 C-3.19636719 5.95264893 -2.70523437 5.0732666 -2.19921875 4.16723633 C-1.43877224 2.7929522 -0.70241523 1.40483045 0 0 Z " fill="#EFF1F6" transform="translate(339,25)"/>
<path d="M0 0 C3.502108 2.25691404 5.42512718 4.17431337 7 8 C7.56561197 12.17230651 7.63439745 15.81771383 5.625 19.5625 C4 21 4 21 2 21 C0.31937818 16.7490154 0.04705344 14.40737786 1 10 C0.34 9.01 -0.32 8.02 -1 7 C-2.32 7 -3.64 7 -5 7 C-4.855625 7.65226563 -4.71125 8.30453125 -4.5625 8.9765625 C-2.43859649 18.97660819 -2.43859649 18.97660819 -3 23 C-4.79993774 25.69990662 -6.083773 27.5418865 -9 29 C-12.1875 29.5625 -12.1875 29.5625 -16 29 C-19.65715314 25.89827248 -22.47863151 22.56410548 -24 18 C-24.45933014 10.76555024 -24.45933014 10.76555024 -22.5 7.5 C-22.005 7.005 -21.51 6.51 -21 6 C-19.68 6.33 -18.36 6.66 -17 7 C-16.67 8.65 -16.34 10.3 -16 12 C-16.66 12 -17.32 12 -18 12 C-17.53199289 16.05606165 -17.12046792 19.46588679 -15 23 C-13.68 22.67 -12.36 22.34 -11 22 C-11.05647705 21.44538086 -11.1129541 20.89076172 -11.17114258 20.31933594 C-11.4123638 17.79798103 -11.61277478 15.2749665 -11.8125 12.75 C-11.90208984 11.87730469 -11.99167969 11.00460938 -12.08398438 10.10546875 C-12.26221732 7.64773027 -12.35265724 5.43982386 -12 3 C-8.16960238 -1.40396835 -5.52619991 -1.57891426 0 0 Z " fill="#EDF0F6" transform="translate(539,163)"/>
<path d="M0 0 C2.475 0.99 2.475 0.99 5 2 C4 7 3 12 2 17 C3.65 17.33 5.3 17.66 7 18 C7.13277344 17.37351563 7.26554687 16.74703125 7.40234375 16.1015625 C7.57894531 15.28429687 7.75554688 14.46703125 7.9375 13.625 C8.11152344 12.81289062 8.28554688 12.00078125 8.46484375 11.1640625 C9 9 9 9 10 7 C12.97 7.495 12.97 7.495 16 8 C15.29666462 10.97722547 14.41751463 13.85256543 13.4375 16.75 C13.16808594 17.54921875 12.89867188 18.3484375 12.62109375 19.171875 C12.41613281 19.77515625 12.21117188 20.3784375 12 21 C14.31 21.33 16.62 21.66 19 22 C19.12117188 21.32453125 19.24234375 20.6490625 19.3671875 19.953125 C19.53476562 19.06109375 19.70234375 18.1690625 19.875 17.25 C20.03742187 16.36828125 20.19984375 15.4865625 20.3671875 14.578125 C20.96796264 12.13052256 21.77997117 10.19400143 23 8 C25.475 8.495 25.475 8.495 28 9 C26.91834274 16.48620682 25.08697772 23.09176345 22 30 C18.29488774 29.33467657 14.82773247 28.35372805 11.26171875 27.15234375 C10.19501953 26.79462891 9.12832031 26.43691406 8.02929688 26.06835938 C6.92650391 25.69517578 5.82371094 25.32199219 4.6875 24.9375 C3.56537109 24.56044922 2.44324219 24.18339844 1.28710938 23.79492188 C-1.47618351 22.86598512 -4.23850178 21.93425558 -7 21 C-3.95942483 9.42070046 -3.95942483 9.42070046 -1.8125 4.3125 C-1.46832031 3.48363281 -1.12414063 2.65476563 -0.76953125 1.80078125 C-0.51558594 1.20652344 -0.26164062 0.61226562 0 0 Z " fill="#EDF0F6" transform="translate(37,205)"/>
<path d="M0 0 C2.81878012 1.28174718 4.85241496 2.61007615 7.015625 4.8203125 C7.54414063 5.35527344 8.07265625 5.89023438 8.6171875 6.44140625 C9.15601563 6.99699219 9.69484375 7.55257812 10.25 8.125 C10.80429687 8.68832031 11.35859375 9.25164062 11.9296875 9.83203125 C13.29104485 11.21686028 14.64614859 12.60783204 16 14 C15.34 15.32 14.68 16.64 14 18 C11 18 11 18 8.73828125 16.03125 C7.93777344 15.1959375 7.13726562 14.360625 6.3125 13.5 C5.50425781 12.6646875 4.69601562 11.829375 3.86328125 10.96875 C3.24839844 10.3190625 2.63351562 9.669375 2 9 C0.02 9.99 0.02 9.99 -2 11 C-0.44499019 14.81684226 2.03595495 17.19195732 5 20 C4.34 21.32 3.68 22.64 3 24 C0 24 0 24 -1.46484375 22.65234375 C-2.44679928 21.50889951 -3.42597069 20.36305847 -4.40234375 19.21484375 C-4.92957031 18.81394531 -5.45679688 18.41304687 -6 18 C-8.16515653 18.23198562 -8.16515653 18.23198562 -10 19 C-9.45015228 22.87511727 -7.72444669 24.59576506 -4.9375 27.25 C-3.83728516 28.30960938 -3.83728516 28.30960938 -2.71484375 29.390625 C-1.86599609 30.18726563 -1.86599609 30.18726563 -1 31 C-1.8125 32.9375 -1.8125 32.9375 -3 35 C-4.485 35.495 -4.485 35.495 -6 36 C-6.42410156 35.50371094 -6.84820312 35.00742188 -7.28515625 34.49609375 C-11.34333305 29.79574391 -15.56156684 25.34094423 -20 21 C-15.76183463 15.93376232 -11.32591037 11.19961931 -6.625 6.5625 C-5.98433594 5.92634766 -5.34367187 5.29019531 -4.68359375 4.63476562 C-3.12469121 3.08749668 -1.56348584 1.54263508 0 0 Z " fill="#F5F6FA" transform="translate(497,107)"/>
<path d="M0 0 C-0.14203337 2.37528151 -0.28851612 4.75015251 -0.4375 7.125 C-0.47681641 7.79015625 -0.51613281 8.4553125 -0.55664062 9.140625 C-0.812152 13.15018817 -1.26782413 17.04994196 -2 21 C-0.83984375 21.09087891 -0.83984375 21.09087891 0.34375 21.18359375 C6.25249543 21.65892599 12.12508141 22.20914557 18 23 C18 25 18 25 16.515625 26.61328125 C12.98054954 28.56196415 9.67068208 28.3225765 5.75 28.1875 C5.00492188 28.17396484 4.25984375 28.16042969 3.4921875 28.14648438 C1.66114584 28.11127204 -0.16952169 28.05746851 -2 28 C-1.33484375 28.77730469 -0.6696875 29.55460937 0.015625 30.35546875 C2 33 2 33 1.75 35.3125 C1.5025 35.869375 1.255 36.42625 1 37 C-0.98 37.495 -0.98 37.495 -3 38 C-5.68232819 34.59536934 -8.34302727 31.17444289 -11 27.75 C-11.763125 26.78191406 -12.52625 25.81382813 -13.3125 24.81640625 C-14.3953125 23.41455078 -14.3953125 23.41455078 -15.5 21.984375 C-16.1703125 21.12553711 -16.840625 20.26669922 -17.53125 19.38183594 C-19 17 -19 17 -19 13 C-17.68 12.34 -16.36 11.68 -15 11 C-13.02 13.64 -11.04 16.28 -9 19 C-8.76216797 17.44539063 -8.76216797 17.44539063 -8.51953125 15.859375 C-8.2849458 14.48939596 -8.04920777 13.11961393 -7.8125 11.75 C-7.71130859 11.06808594 -7.61011719 10.38617188 -7.50585938 9.68359375 C-6.83829506 5.9668843 -6.18349071 4.17871377 -3.44921875 1.515625 C-1 0 -1 0 0 0 Z " fill="#ECEFF5" transform="translate(142,70)"/>
<path d="M0 0 C-1.65 6.6 -3.3 13.2 -5 20 C-4.01 20 -3.02 20 -2 20 C-2.33 21.98 -2.66 23.96 -3 26 C-4.32 25.67 -5.64 25.34 -7 25 C-7.33 26.98 -7.66 28.96 -8 31 C-9.98 30.67 -11.96 30.34 -14 30 C-14 27.69 -14 25.38 -14 23 C-17.63 22.01 -21.26 21.02 -25 20 C-25 15 -25 15 -22.875 12.53515625 C-21.92625 11.71917969 -20.9775 10.90320313 -20 10.0625 C-19.24940308 9.41607544 -19.24940308 9.41607544 -18.48364258 8.7565918 C-17.00082929 7.49052109 -15.50062665 6.2449056 -14 5 C-13.24074219 4.33484375 -12.48148438 3.6696875 -11.69921875 2.984375 C-11.03535156 2.43265625 -10.37148437 1.8809375 -9.6875 1.3125 C-9.11386719 0.83425781 -8.54023438 0.35601563 -7.94921875 -0.13671875 C-6 -1 -6 -1 0 0 Z " fill="#F1F3F8" transform="translate(238,537)"/>
<path d="M0 0 C2.4375 0.375 2.4375 0.375 5 1 C5.33 1.66 5.66 2.32 6 3 C5.36328125 4.80004883 5.36328125 4.80004883 4.3125 6.95703125 C3.75949219 8.13168945 3.75949219 8.13168945 3.1953125 9.33007812 C2.40301509 10.97551931 1.60618698 12.61878712 0.8046875 14.25976562 C-1.42961311 18.92391692 -1.42961311 18.92391692 -1.859375 23.9921875 C-1.14774041 26.11677283 -1.14774041 26.11677283 0.75 27.3125 C3.27019811 28.08256053 5.37893707 28.04773459 8 28 C8.25692627 27.42967041 8.51385254 26.85934082 8.77856445 26.27172852 C9.94576981 23.69694127 11.12887332 21.12977709 12.3125 18.5625 C12.71662109 17.66466797 13.12074219 16.76683594 13.53710938 15.84179688 C13.93349609 14.98779297 14.32988281 14.13378906 14.73828125 13.25390625 C15.28029175 12.06776733 15.28029175 12.06776733 15.83325195 10.85766602 C17 9 17 9 20 8 C20.99 8.66 21.98 9.32 23 10 C20.55927958 18.47073559 17.01588723 30.35173403 9 35 C3.43098804 35.85677107 0.19654909 34.44741197 -4.265625 31.3515625 C-6.40603732 29.68358353 -7.83325285 28.4793377 -9 26 C-9.75491606 19.38590587 -7.45127036 14.889708 -4.5 9.0625 C-4.07074219 8.18787109 -3.64148438 7.31324219 -3.19921875 6.41210938 C-2.14491764 4.26836379 -1.07842875 2.13168141 0 0 Z " fill="#EFF1F7" transform="translate(405,44)"/>
<path d="M0 0 C3.39658643 0.32321585 5.07633845 1.70907945 7.41796875 4.08984375 C8.33932617 5.01893555 8.33932617 5.01893555 9.27929688 5.96679688 C9.90900391 6.61712891 10.53871094 7.26746094 11.1875 7.9375 C11.82880859 8.58396484 12.47011719 9.23042969 13.13085938 9.89648438 C17.30229417 14.13839748 19.51520834 16.45791402 19.4921875 22.765625 C18.52992688 27.13398275 15.1289412 29.98432364 12 33 C11.34 33.66 10.68 34.32 10 35 C3.15087719 35.67368421 3.15087719 35.67368421 -0.5625 33.5 C-3.85819014 30.11980498 -6.95150664 26.60337264 -10 23 C-11.1453592 21.66625935 -12.29115647 20.33289472 -13.4375 19 C-14.283125 18.01 -15.12875 17.02 -16 16 C-15.01 15.01 -14.02 14.02 -13 13 C-10.05351883 14.31595441 -8.10857467 15.69264087 -5.94140625 18.07421875 C-5.39033203 18.65880859 -4.83925781 19.24339844 -4.27148438 19.84570312 C-3.12810193 21.07794272 -1.99269529 22.31762926 -0.86523438 23.56445312 C0.6943135 25.20407114 2.15521874 26.68852771 4 28 C7.05978892 27.97008586 8.32861313 27.46302543 10.8125 25.75 C12.52789079 23.22205568 12.47806116 22.03336151 12 19 C10.29009517 16.56923429 8.22850314 14.52896937 6.125 12.4375 C-0.60824374 5.60271082 -0.60824374 5.60271082 -2 2 C-1.34 1.34 -0.68 0.68 0 0 Z " fill="#F0F2F7" transform="translate(113,92)"/>
<path d="M0 0 C2.77667662 1.15824127 4.47841146 2.80467875 6.66015625 4.875 C11.95601114 9.79201579 17.46660535 14.34660736 23.09765625 18.875 C21.75 20.38671875 21.75 20.38671875 20.09765625 21.875 C17.28232866 21.65843634 15.54234114 21.18627943 13.22265625 19.5625 C10.82236795 18.54304028 10.82236795 18.54304028 7.41015625 20.25 C5.14722379 21.65224447 4.26079138 22.37611 3.42578125 24.9296875 C3.09121232 27.37705794 3.09121232 27.37705794 3.09765625 30.875 C1.44765625 31.205 -0.20234375 31.535 -1.90234375 31.875 C-2.41144797 28.37626246 -2.90794975 24.87584399 -3.40234375 21.375 C-3.54542969 20.39273438 -3.68851562 19.41046875 -3.8359375 18.3984375 C-4.61214959 12.8540654 -5.36432249 7.47007582 -4.90234375 1.875 C-1.90234375 -0.125 -1.90234375 -0.125 0 0 Z " fill="#F1F3F8" transform="translate(418.90234375,519.125)"/>
<path d="M0 0 C0 1.32 0 2.64 0 4 C-1.24735567 4.6509259 -2.49801832 5.29551669 -3.75 5.9375 C-4.44609375 6.29714844 -5.1421875 6.65679688 -5.859375 7.02734375 C-7.90224433 7.95558182 -9.81115376 8.53166578 -12 9 C-12 10.65 -12 12.3 -12 14 C-11.40832031 13.79503906 -10.81664062 13.59007812 -10.20703125 13.37890625 C-6.16339184 12.0002429 -2.23144751 10.68249153 2 10 C2.33 11.65 2.66 13.3 3 15 C1.3767313 15.6708712 -0.24867578 16.33657029 -1.875 17 C-2.77992188 17.37125 -3.68484375 17.7425 -4.6171875 18.125 C-7 19 -7 19 -9 19 C-8.34 20.98 -7.68 22.96 -7 25 C-6.33613281 24.79503906 -5.67226563 24.59007812 -4.98828125 24.37890625 C-4.10527344 24.10949219 -3.22226562 23.84007812 -2.3125 23.5625 C-1.44238281 23.29566406 -0.57226562 23.02882813 0.32421875 22.75390625 C2.87025921 22.03655471 5.4003423 21.482459 8 21 C8.33 22.65 8.66 24.3 9 26 C2.43252132 28.7527517 -4.14381674 31.07443364 -11 33 C-12.34501636 29.67127235 -13.6732171 26.3360324 -15 23 C-15.45503906 21.87207031 -15.91007812 20.74414062 -16.37890625 19.58203125 C-16.83136719 18.44121094 -17.28382813 17.30039062 -17.75 16.125 C-18.17796875 15.05507813 -18.6059375 13.98515625 -19.046875 12.8828125 C-20 10 -20 10 -20 6 C-17.60824639 4.98914564 -15.21238415 3.99120797 -12.8125 3 C-11.80219727 2.57074219 -11.80219727 2.57074219 -10.77148438 2.1328125 C-7.05006206 0.60793701 -4.03528592 -0.37610432 0 0 Z " fill="#ECEEF5" transform="translate(401,529)"/>
<path d="M0 0 C1.794375 0.2165625 1.794375 0.2165625 3.625 0.4375 C3.625 1.0975 3.625 1.7575 3.625 2.4375 C2.965 2.4375 2.305 2.4375 1.625 2.4375 C1.3775 3.015 1.13 3.5925 0.875 4.1875 C-0.375 6.4375 -0.375 6.4375 -2.5625 8.375 C-4.64917497 10.26187892 -4.64917497 10.26187892 -4.2421875 12.6796875 C-3.1492232 16.1555109 -1.40797462 18.64994344 0.6875 21.625 C4.625 27.23714851 4.625 27.23714851 4.625 29.4375 C1.5625 30.125 1.5625 30.125 -2.375 29.4375 C-5.33609769 25.95620947 -9.375 21.17912575 -9.375 16.4375 C-11.43597206 17.59616671 -11.43597206 17.59616671 -13.375 19.4375 C-14.0700739 21.93157252 -14.0700739 21.93157252 -14.125 24.625 C-14.18171875 25.52605469 -14.2384375 26.42710937 -14.296875 27.35546875 C-14.32265625 28.04253906 -14.3484375 28.72960937 -14.375 29.4375 C-16.355 29.4375 -18.335 29.4375 -20.375 29.4375 C-20.375 20.1975 -20.375 10.9575 -20.375 1.4375 C-18.725 1.4375 -17.075 1.4375 -15.375 1.4375 C-15.375 5.0675 -15.375 8.6975 -15.375 12.4375 C-11.98204249 9.16960034 -11.98204249 9.16960034 -8.98828125 5.546875 C-6.26859508 1.88088706 -4.75105758 -0.01675858 0 0 Z " fill="#F0F2F7" transform="translate(309.375,547.5625)"/>
<path d="M0 0 C1.859375 0.20703125 1.859375 0.20703125 4 1 C8.64520121 8.383576 9.10222347 17.5745291 8 26 C6.76773362 30.24238274 5.338858 34.2380622 3 38 C1.515 38.495 1.515 38.495 0 39 C-5.36494429 30.12868141 -6.60075076 21.1487598 -5 11 C-3.73406968 7.04942435 -2.14477483 3.54653838 0 0 Z " fill="#F6F7FA" transform="translate(558,291)"/>
<path d="M0 0 C5.61045507 5.28135017 7.10241262 11.42122529 7.34179688 18.89086914 C7.46329042 27.06577693 6.78359998 33.04669574 2 40 C-1 39 -1 39 -2.1328125 37.36328125 C-2.46023437 36.68652344 -2.78765625 36.00976562 -3.125 35.3125 C-3.45757812 34.64863281 -3.79015625 33.98476563 -4.1328125 33.30078125 C-6.99846994 25.69775318 -7.55450348 16.07434003 -4.66015625 8.48828125 C-3.20167233 5.58847205 -1.68068801 2.77613644 0 0 Z " fill="#F6F7FA" transform="translate(39,290)"/>
<path d="M0 0 C3.74489051 1.44963504 3.74489051 1.44963504 4.85327148 3.84082031 C5.03623796 6.53325871 4.43093662 8.08032892 3.34765625 10.546875 C2.98349609 11.39121094 2.61933594 12.23554687 2.24414062 13.10546875 C1.85419922 13.97816406 1.46425781 14.85085937 1.0625 15.75 C0.67642578 16.63816406 0.29035156 17.52632812 -0.10742188 18.44140625 C-1.06150943 20.63227396 -2.02594113 22.81795598 -3 25 C-2.48091064 24.72212646 -1.96182129 24.44425293 -1.42700195 24.15795898 C0.93699959 22.90304729 3.31184713 21.67020191 5.6875 20.4375 C6.50412109 19.99986328 7.32074219 19.56222656 8.16210938 19.11132812 C8.95810547 18.70205078 9.75410156 18.29277344 10.57421875 17.87109375 C11.30213623 17.48880615 12.03005371 17.10651855 12.7800293 16.71264648 C15.60358537 15.80623934 17.20992682 16.04425708 20 17 C20.66 17.99 21.32 18.98 22 20 C20.97261719 20.50789063 19.94523437 21.01578125 18.88671875 21.5390625 C17.48673792 22.23388912 16.08701614 22.92923786 14.6875 23.625 C13.96216064 23.98529297 13.23682129 24.34558594 12.48950195 24.71679688 C7.28337441 27.31842169 2.18135868 30.06402624 -2.86328125 32.96875 C-5 34 -5 34 -8 34 C-10.1875 32 -10.1875 32 -12 30 C-9.8197371 23.12052968 -7.19745965 16.54944102 -4.3125 9.9375 C-3.89677734 8.97650391 -3.48105469 8.01550781 -3.05273438 7.02539062 C-2.03848513 4.68212514 -1.02085998 2.34039113 0 0 Z " fill="#F0F2F7" transform="translate(473,84)"/>
<path d="M0 0 C2.18958928 3.28438393 2.54013629 4.19091384 2 8 C0.25 10.67578125 0.25 10.67578125 -2 13.3125 C-2.7425 14.19550781 -3.485 15.07851562 -4.25 15.98828125 C-5.11625 16.98408203 -5.11625 16.98408203 -6 18 C-4.58398286 18.48108275 -3.16715563 18.95978141 -1.75 19.4375 C-0.96109375 19.70433594 -0.1721875 19.97117188 0.640625 20.24609375 C2.74821988 20.91954708 4.84753973 21.49150595 7 22 C7.495 25.465 7.495 25.465 8 29 C3.58420618 28.43656043 0.1354503 27.27916606 -3.875 25.375 C-9.36217308 23.01463383 -12.23638196 22.63236182 -18 24 C-19.33134962 24.20110252 -20.66473868 24.3892625 -22 24.5625 C-23.485 24.7790625 -23.485 24.7790625 -25 25 C-25 23.02 -25 21.04 -25 19 C-24.23816406 18.82726562 -23.47632813 18.65453125 -22.69140625 18.4765625 C-13.85419332 16.07142839 -9.48815777 12.18107741 -4 5 C-2.66779519 3.33243114 -1.33478621 1.66550333 0 0 Z " fill="#EEF0F6" transform="translate(567,223)"/>
<path d="M0 0 C1.67542976 0.28604898 3.34385343 0.61781233 5 1 C5.24234375 1.76183594 5.4846875 2.52367187 5.734375 3.30859375 C7.62218223 9.12449217 9.62257433 14.6889309 12.36328125 20.16015625 C13 22 13 22 12 25 C10.35 25.33 8.7 25.66 7 26 C6.01 23.36 5.02 20.72 4 18 C-0.08324298 18.67038318 -3.66571487 19.95911906 -7.5 21.5 C-11.33428513 23.04088094 -14.91675702 24.32961682 -19 25 C-19.66 23.35 -20.32 21.7 -21 20 C-16.83073902 17.83956477 -12.64491237 16.02562377 -8.25 14.375 C-4.06304844 12.82910983 -4.06304844 12.82910983 0 11 C-0.12568359 9.93458984 -0.12568359 9.93458984 -0.25390625 8.84765625 C-0.35574219 7.92855469 -0.45757813 7.00945312 -0.5625 6.0625 C-0.66691406 5.14597656 -0.77132812 4.22945312 -0.87890625 3.28515625 C-0.91886719 2.53105469 -0.95882812 1.77695313 -1 1 C-0.67 0.67 -0.34 0.34 0 0 Z " fill="#ECEFF5" transform="translate(555,197)"/>
<path d="M0 0 C0.33 1.98 0.66 3.96 1 6 C-1.97 6.66 -4.94 7.32 -8 8 C-7.71125 9.22976562 -7.4225 10.45953125 -7.125 11.7265625 C-6.74965883 13.35929661 -6.37467782 14.99211354 -6 16.625 C-5.80921875 17.43324219 -5.6184375 18.24148437 -5.421875 19.07421875 C-4.42074457 23.47204169 -3.7646918 27.45561039 -4 32 C-6.475 32.495 -6.475 32.495 -9 33 C-9.83910389 29.73061914 -10.67028333 26.45927466 -11.5 23.1875 C-11.73847656 22.25873047 -11.97695312 21.32996094 -12.22265625 20.37304688 C-12.44824219 19.48037109 -12.67382812 18.58769531 -12.90625 17.66796875 C-13.11572266 16.84578857 -13.32519531 16.0236084 -13.54101562 15.17651367 C-14 13 -14 13 -14 10 C-17.63 10.33 -21.26 10.66 -25 11 C-25 9.02 -25 7.04 -25 5 C-21.20906666 4.16330657 -17.41713799 3.33121508 -13.625 2.5 C-12.54476562 2.26152344 -11.46453125 2.02304687 -10.3515625 1.77734375 C-9.3203125 1.55175781 -8.2890625 1.32617188 -7.2265625 1.09375 C-6.27346191 0.88427734 -5.32036133 0.67480469 -4.33837891 0.45898438 C-2 0 -2 0 0 0 Z " fill="#EDF0F6" transform="translate(242,28)"/>
<path d="M0 0 C7.34918342 -0.43230491 13.90215087 1.18225815 21 3 C21.16015625 5.3671875 21.16015625 5.3671875 21 8 C19.61720254 9.14671008 18.22536965 10.2843491 16.7890625 11.36328125 C10.92683541 16.72632306 7.38915168 24.5514683 5 32 C3.35 32 1.7 32 0 32 C0.17063937 21.59099846 5.60707987 14.846498 12 7 C8.04 6.67 4.08 6.34 0 6 C0 4.02 0 2.04 0 0 Z " fill="#EDEFF6" transform="translate(246,540)"/>
<path d="M0 0 C4.74761601 0.3963854 6.99723126 2.08580923 10.0625 5.6875 C10.83402986 10.00806721 10.58997866 11.87869939 8.1875 15.5625 C5.28878658 18.46121342 4.43430992 18.64483329 0.25 19.125 C-3.4930686 19.07727417 -3.88857056 18.73031326 -6.9375 16.0625 C-9.13578829 12.35288851 -9.81262282 10.88808953 -8.9375 6.6875 C-6.34275985 2.308876 -5.07136755 0.88547687 0 0 Z " fill="#093B89" transform="translate(58.9375,181.3125)"/>
<path d="M0 0 C3.64575305 0.870234 5.12960019 2.43704001 7.16015625 5.515625 C7.8516695 9.81837409 7.6757303 11.72507812 5.28515625 15.390625 C2.34900414 18.32677711 1.54267433 18.47860712 -2.71484375 18.890625 C-6.02116698 18.83661972 -6.62803415 18.69484851 -9.27734375 16.453125 C-11.17348877 12.88837236 -11.91100748 10.5719576 -11.83984375 6.515625 C-8.8517876 1.03752206 -6.2463164 -0.45882792 0 0 Z " fill="#083A89" transform="translate(278.83984375,29.484375)"/>
<path d="M0 0 C1.65 0.33 3.3 0.66 5 1 C4.44584825 6.95713134 2.71262195 12.34006662 0.83984375 18.01171875 C-0.18037557 21.12445882 -0.18037557 21.12445882 0 25 C4.29 26.32 8.58 27.64 13 29 C13 30.65 13 32.3 13 34 C10.42077613 35.28961193 9.59708789 34.79211692 6.8671875 34.00390625 C6.06152344 33.77509766 5.25585938 33.54628906 4.42578125 33.31054688 C3.16314453 32.94026367 3.16314453 32.94026367 1.875 32.5625 C1.02550781 32.31951172 0.17601562 32.07652344 -0.69921875 31.82617188 C-2.80141612 31.2238569 -4.90145431 30.61489475 -7 30 C-8.6532147 24.97987243 -7.19793535 20.99678249 -5.75 16.125 C-5.53214844 15.34769531 -5.31429688 14.57039063 -5.08984375 13.76953125 C-3.71889013 8.99925403 -2.04908148 4.52003268 0 0 Z " fill="#EEF0F6" transform="translate(367,31)"/>
<path d="M0 0 C20.69491525 2.79661017 20.69491525 2.79661017 27.1875 7.125 C29.72460897 11.14937974 30.00070353 14.37072919 29 19 C27.65003962 21.86048873 26.52471836 22.85130352 24 25 C20.1875 25.875 20.1875 25.875 17 26 C17.25 23.125 17.25 23.125 18 20 C20.0625 18.625 20.0625 18.625 22 18 C22 16.02 22 14.04 22 12 C14.77160428 9.42718118 7.49347179 7.63304408 0 6 C0 4.02 0 2.04 0 0 Z " fill="#EFF1F7" transform="translate(27,235)"/>
<path d="M0 0 C3.97764662 0.63926464 5.13185681 1.37461494 7.5 4.5625 C8.70190901 8.16822704 8.82670315 10.7727435 8.5 14.5625 C6.9375 17.5 6.9375 17.5 4.5 19.5625 C1.0625 20.25 1.0625 20.25 -2.5 19.5625 C-5.51066181 17.00023463 -7.09121046 15.40205295 -7.9453125 11.55859375 C-8.14531658 8.04518868 -7.55340592 5.66503936 -5.9375 2.5625 C-3.5 0.5625 -3.5 0.5625 0 0 Z " fill="#0B3D8A" transform="translate(332.5,550.4375)"/>
<path d="M0 0 C2.00720923 0.28674418 4.0085944 0.61866701 6 1 C4.85084819 6.87353915 1.44004843 11.97905372 -1.375 17.1875 C-1.96539062 18.30576172 -2.55578125 19.42402344 -3.1640625 20.57617188 C-3.73640625 21.63771484 -4.30875 22.69925781 -4.8984375 23.79296875 C-5.42099121 24.7677417 -5.94354492 25.74251465 -6.48193359 26.74682617 C-8 29 -8 29 -11 30 C-11.99 29.34 -12.98 28.68 -14 28 C-13.4462522 22.89545207 -10.97407204 19.03424443 -8.4375 14.6875 C-8.01275391 13.94693359 -7.58800781 13.20636719 -7.15039062 12.44335938 C-6.10648347 10.62531882 -5.05407808 8.81216252 -4 7 C-6.64 7 -9.28 7 -12 7 C-11.125 3.125 -11.125 3.125 -10 2 C-7.68182911 1.67902249 -5.36220643 1.48779044 -3.03125 1.28125 C-1.00819407 1.20934163 -1.00819407 1.20934163 0 0 Z " fill="#F0F2F7" transform="translate(180,515)"/>
<path d="M0 0 C1.98 0 3.96 0 6 0 C6.84126612 4.06089895 7.67161887 8.12395474 8.5 12.1875 C8.73847656 13.33798828 8.97695313 14.48847656 9.22265625 15.67382812 C9.44824219 16.78564453 9.67382812 17.89746094 9.90625 19.04296875 C10.11572266 20.06414795 10.32519531 21.08532715 10.54101562 22.13745117 C10.97101791 24.81924732 11.08705161 27.29051865 11 30 C9.02 30 7.04 30 5 30 C4.82609741 29.01604248 4.82609741 29.01604248 4.64868164 28.01220703 C4.12316081 25.04922551 3.59289082 22.08711346 3.0625 19.125 C2.88009766 18.09246094 2.69769531 17.05992188 2.50976562 15.99609375 C2.33251953 15.00996094 2.15527344 14.02382813 1.97265625 13.0078125 C1.81031494 12.09660645 1.64797363 11.18540039 1.48071289 10.24658203 C1.09326213 7.97805304 1.09326213 7.97805304 0 6 C-0.039992 4.00039988 -0.04346799 1.99952758 0 0 Z " fill="#EBEDF5" transform="translate(248,26)"/>
<path d="M0 0 C0.33 1.98 0.66 3.96 1 6 C-3.09718532 7.86988327 -7.20375596 9.71817039 -11.3125 11.5625 C-13.06336914 12.36204102 -13.06336914 12.36204102 -14.84960938 13.17773438 C-16.52700195 13.92700195 -16.52700195 13.92700195 -18.23828125 14.69140625 C-19.26993408 15.15748291 -20.30158691 15.62355957 -21.36450195 16.10375977 C-24 17 -24 17 -27 16 C-27.6875 13.9375 -27.6875 13.9375 -28 12 C-4.26213592 0 -4.26213592 0 0 0 Z " fill="#EDEFF5" transform="translate(554,186)"/>
<path d="M0 0 C1.65 0.66 3.3 1.32 5 2 C4.35913673 5.43530236 3.0164241 7.79444599 1.09375 10.6953125 C0.22556641 12.01595703 0.22556641 12.01595703 -0.66015625 13.36328125 C-1.26730469 14.27464844 -1.87445313 15.18601562 -2.5 16.125 C-3.69869741 17.93958865 -4.89665148 19.75466864 -6.09375 21.5703125 C-6.62677734 22.37227051 -7.15980469 23.17422852 -7.70898438 24.00048828 C-9.0247497 25.95828715 -9.0247497 25.95828715 -10 28 C-12.475 27.01 -12.475 27.01 -15 26 C-14.43399163 21.91642551 -13.15111032 19.31199083 -10.83984375 15.91796875 C-10.21142578 14.98662109 -9.58300781 14.05527344 -8.93554688 13.09570312 C-7.94651367 11.65614258 -7.94651367 11.65614258 -6.9375 10.1875 C-6.27427734 9.20845703 -5.61105469 8.22941406 -4.92773438 7.22070312 C-3.29233474 4.8087828 -1.64960202 2.40221906 0 0 Z " fill="#F0F2F7" transform="translate(463,76)"/>
<path d="M0 0 C0.12117187 0.89203125 0.24234375 1.7840625 0.3671875 2.703125 C0.53476563 3.87359375 0.70234375 5.0440625 0.875 6.25 C1.11863281 7.99023438 1.11863281 7.99023438 1.3671875 9.765625 C1.83178525 12.91983754 1.83178525 12.91983754 3.1328125 15.234375 C4 17 4 17 3 20 C-2.0822079 15.63749475 -7.0093453 11.40669346 -11 6 C-11 5.34 -11 4.68 -11 4 C-9.73308493 3.32591692 -8.46129251 2.66099503 -7.1875 2 C-6.47980469 1.62875 -5.77210938 1.2575 -5.04296875 0.875 C-3 0 -3 0 0 0 Z " fill="#F6E8EE" transform="translate(253,427)"/>
<path d="M0 0 C3.72010342 1.22629448 7.37736366 2.50832621 11 4 C7.90570784 10.65564729 3.25305237 15.27794502 -3 19 C-2.85691406 18.15179688 -2.71382813 17.30359375 -2.56640625 16.4296875 C-1.99968273 12.99807888 -1.4637299 9.56303536 -0.9375 6.125 C-0.67259766 4.39636719 -0.67259766 4.39636719 -0.40234375 2.6328125 C-0.26957031 1.76398438 -0.13679688 0.89515625 0 0 Z " fill="#F7ECF1" transform="translate(346,427)"/>
<path d="M0 0 C1.68550367 3.37100733 -0.31136964 6.72014632 -1.4375 10.125 C-1.68048828 10.87910156 -1.92347656 11.63320313 -2.17382812 12.41015625 C-2.77595819 14.27557879 -3.38713463 16.13807683 -4 18 C-8.75 17.125 -8.75 17.125 -11 16 C-9.55049595 11.64352355 -7.32252888 8.68242711 -4.375 5.1875 C-3.55773437 4.21167969 -2.74046875 3.23585938 -1.8984375 2.23046875 C-1.27195312 1.49441406 -0.64546875 0.75835937 0 0 Z " fill="#F7EDF1" transform="translate(380,388)"/>
<path d="M0 0 C4.875 0.875 4.875 0.875 6 2 C6.45691383 7.25450902 6.45691383 7.25450902 4.8125 9.9375 C3 11 3 11 0.3125 10.6875 C-0.450625 10.460625 -1.21375 10.23375 -2 10 C-3.06351675 6.61608307 -3.21442982 5.4195366 -1.5625 2.1875 C-1.046875 1.465625 -0.53125 0.74375 0 0 Z " fill="#12418D" transform="translate(199,530)"/>
<path d="M0 0 C4.50513431 4.23209586 8.514292 8.88695859 12 14 C12 14.66 12 15.32 12 16 C10.02 16.66 8.04 17.32 6 18 C3.1248748 12.09622349 1.16194152 6.46712188 0 0 Z " fill="#F5E8ED" transform="translate(218,388)"/>
<path d="M0 0 C1.32 0.33 2.64 0.66 4 1 C4.65234375 2.765625 4.65234375 2.765625 5 5 C4.00390625 6.921875 4.00390625 6.921875 2.5625 8.75 C1.85287109 9.67039063 1.85287109 9.67039063 1.12890625 10.609375 C0.75636719 11.06828125 0.38382812 11.5271875 0 12 C-2.16874252 11.49396008 -3.99967627 11.00016187 -6 10 C-5.49477778 5.62140745 -2.82172778 3.18348776 0 0 Z " fill="#14428E" transform="translate(99,133)"/>
<path d="M0 0 C0.33 1.65 0.66 3.3 1 5 C-2.83325617 7.70582788 -5.32538149 8.32613618 -10 8 C-10.33 6.02 -10.66 4.04 -11 2 C-7.17679443 0.57741188 -4.08718695 -0.24042276 0 0 Z " fill="#13428E" transform="translate(369,545)"/>
<path d="M0 0 C0.66 0.33 1.32 0.66 2 1 C-7.24 10.24 -16.48 19.48 -26 29 C-26.66 28.67 -27.32 28.34 -28 28 C-27.25556641 27.27296875 -27.25556641 27.27296875 -26.49609375 26.53125 C-23.12677652 23.20668651 -19.84971976 19.88245379 -16.8125 16.25 C-11.73617813 10.31971744 -5.78594006 5.22039704 0 0 Z " fill="#B23874" transform="translate(157,130)"/>
<path d="M0 0 C0.99 0 1.98 0 3 0 C5.42603384 2.98055586 6.91332443 5.00323092 7.25 8.875 C7.1675 9.57625 7.085 10.2775 7 11 C5.68 11 4.36 11 3 11 C1.515625 9.46875 1.515625 9.46875 0.25 7.5 C-0.17796875 6.8503125 -0.6059375 6.200625 -1.046875 5.53125 C-1.36140625 5.0259375 -1.6759375 4.520625 -2 4 C-1.34 2.68 -0.68 1.36 0 0 Z " fill="#12418D" transform="translate(517,139)"/>
<path d="M0 0 C1.32 0.33 2.64 0.66 4 1 C3.49701212 5.40114397 1.91227269 7.71195019 -1 11 C-2.32 10.67 -3.64 10.34 -5 10 C-5 4.69520066 -3.4637943 3.81017373 0 0 Z " fill="#16448F" transform="translate(90,126)"/>
<path d="M0 0 C1.25541557 3.76624671 0.37061958 5.37188934 -1 9 C-3.31 8.67 -5.62 8.34 -8 8 C-5.33333333 5.33333333 -2.66666667 2.66666667 0 0 Z " fill="#214C94" transform="translate(228,545)"/>
<path d="M0 0 C0.66 0 1.32 0 2 0 C2.33 2.97 2.66 5.94 3 9 C1.02 9 -0.96 9 -3 9 C-2.44271087 5.65626525 -1.64826111 2.96687001 0 0 Z " fill="#244E95" transform="translate(341,34)"/>
<path d="M0 0 C2.31 1.98 4.62 3.96 7 6 C6.01 6.99 5.02 7.98 4 9 C3.01 9 2.02 9 1 9 C-0.4783226 6.04335481 -0.06032783 3.25770263 0 0 Z " fill="#1A4690" transform="translate(420,527)"/>
<path d="M0 0 C2.04119788 1.61594832 4.04072937 3.2856382 6 5 C6 5.66 6 6.32 6 7 C4.02 7.66 2.04 8.32 0 9 C0 6.03 0 3.06 0 0 Z " fill="#16438F" transform="translate(206,48)"/>
<path d="M0 0 C1 2 1 2 0.0625 5.125 C-0.288125 6.07375 -0.63875 7.0225 -1 8 C-4 8 -4 8 -6 7 C-4.02 4.69 -2.04 2.38 0 0 Z " fill="#ECD2DD" transform="translate(380,388)"/>
<path d="M0 0 C0.66 0 1.32 0 2 0 C2 2.64 2 5.28 2 8 C1.34 6.68 0.68 5.36 0 4 C-0.99 4.66 -1.98 5.32 -3 6 C-1.125 1.125 -1.125 1.125 0 0 Z " fill="#B8C3DC" transform="translate(78,394)"/>
<path d="M0 0 C0.99 0.33 1.98 0.66 3 1 C1.02 2.98 -0.96 4.96 -3 7 C-3.66 6.67 -4.32 6.34 -5 6 C-3.35 4.02 -1.7 2.04 0 0 Z " fill="#365B9D" transform="translate(99,133)"/>
</svg>
